<svg width="261" height="325" viewBox="0 0 261 325" fill="none" xmlns="http://www.w3.org/2000/svg">
<ellipse cx="122.708" cy="231.955" rx="18.4659" ry="7.5" fill="#EFF6FF"/>
<path d="M104.242 193.455H141.174V231.455H104.242V193.455Z" fill="url(#paint0_linear_239_7491)"/>
<g filter="url(#filter0_d_239_7491)">
<ellipse cx="122.708" cy="193.955" rx="18.4659" ry="7.5" fill="#D1E5FD"/>
<path d="M140.674 193.955C140.674 194.811 140.249 195.676 139.377 196.513C138.503 197.352 137.213 198.13 135.577 198.795C132.309 200.122 127.759 200.955 122.708 200.955C117.657 200.955 113.107 200.122 109.839 198.795C108.203 198.13 106.913 197.352 106.04 196.513C105.168 195.676 104.742 194.811 104.742 193.955C104.742 193.098 105.168 192.233 106.04 191.396C106.913 190.557 108.203 189.779 109.839 189.115C113.107 187.787 117.657 186.955 122.708 186.955C127.759 186.955 132.309 187.787 135.577 189.115C137.213 189.779 138.503 190.557 139.377 191.396C140.249 192.233 140.674 193.098 140.674 193.955Z" stroke="url(#paint1_linear_239_7491)"/>
</g>
<ellipse cx="171.458" cy="225" rx="18.4659" ry="7.5" fill="#EFF6FF"/>
<path d="M152.992 186.5H189.924V224.5H152.992V186.5Z" fill="url(#paint2_linear_239_7491)"/>
<g filter="url(#filter1_d_239_7491)">
<ellipse cx="171.458" cy="187" rx="18.4659" ry="7.5" fill="#D1E5FD"/>
<path d="M189.424 187C189.424 187.857 188.999 188.721 188.127 189.559C187.253 190.397 185.963 191.176 184.327 191.84C181.059 193.168 176.509 194 171.458 194C166.407 194 161.857 193.168 158.589 191.84C156.953 191.176 155.663 190.397 154.79 189.559C153.918 188.721 153.492 187.857 153.492 187C153.492 186.143 153.918 185.279 154.79 184.441C155.663 183.603 156.953 182.824 158.589 182.16C161.857 180.832 166.407 180 171.458 180C176.509 180 181.059 180.832 184.327 182.16C185.963 182.824 187.253 183.603 188.127 184.441C188.999 185.279 189.424 186.143 189.424 187Z" stroke="url(#paint3_linear_239_7491)"/>
</g>
<ellipse cx="143.39" cy="284.5" rx="18.4659" ry="7.5" fill="#EFF6FF"/>
<path d="M124.924 8H161.856V284H124.924V8Z" fill="url(#paint4_linear_239_7491)"/>
<g filter="url(#filter2_d_239_7491)">
<ellipse cx="143.39" cy="8.5" rx="18.4659" ry="7.5" fill="#FFBF6F"/>
<path d="M161.356 8.5C161.356 9.35663 160.93 10.2213 160.058 11.0587C159.185 11.8974 157.894 12.6758 156.259 13.3401C152.991 14.6675 148.441 15.5 143.39 15.5C138.339 15.5 133.789 14.6675 130.521 13.3401C128.885 12.6758 127.595 11.8974 126.721 11.0587C125.849 10.2213 125.424 9.35663 125.424 8.5C125.424 7.64337 125.849 6.77875 126.721 5.94131C127.595 5.10258 128.885 4.32421 130.521 3.65995C133.789 2.33247 138.339 1.5 143.39 1.5C148.441 1.5 152.991 2.33247 156.259 3.65995C157.894 4.32421 159.185 5.10258 160.058 5.94131C160.93 6.77875 161.356 7.64337 161.356 8.5Z" stroke="url(#paint5_linear_239_7491)"/>
</g>
<ellipse cx="90.2081" cy="222.682" rx="18.4659" ry="7.5" fill="#EFF6FF"/>
<path d="M71.7422 184.182H108.674V222.182H71.7422V184.182Z" fill="url(#paint6_linear_239_7491)"/>
<g filter="url(#filter3_d_239_7491)">
<ellipse cx="90.2081" cy="184.682" rx="18.4659" ry="7.5" fill="#D1E5FD"/>
<path d="M108.174 184.682C108.174 185.538 107.749 186.403 106.877 187.24C106.003 188.079 104.713 188.858 103.077 189.522C99.8089 190.849 95.2592 191.682 90.2081 191.682C85.157 191.682 80.6073 190.849 77.3389 189.522C75.7034 188.858 74.4131 188.079 73.5396 187.24C72.6675 186.403 72.2422 185.538 72.2422 184.682C72.2422 183.825 72.6675 182.961 73.5396 182.123C74.4131 181.284 75.7034 180.506 77.3389 179.842C80.6073 178.514 85.157 177.682 90.2081 177.682C95.2592 177.682 99.8089 178.514 103.077 179.842C104.713 180.506 106.003 181.284 106.877 182.123C107.749 182.961 108.174 183.825 108.174 184.682Z" stroke="url(#paint7_linear_239_7491)"/>
</g>
<ellipse cx="69.5264" cy="241.227" rx="18.4659" ry="7.5" fill="#EFF6FF"/>
<path d="M51.0605 202.727H87.9923V240.727H51.0605V202.727Z" fill="url(#paint8_linear_239_7491)"/>
<g filter="url(#filter4_d_239_7491)">
<ellipse cx="69.5264" cy="203.227" rx="18.4659" ry="7.5" fill="#D1E5FD"/>
<path d="M87.4923 203.227C87.4923 204.084 87.067 204.949 86.1949 205.786C85.3214 206.625 84.0311 207.403 82.3957 208.067C79.1272 209.395 74.5775 210.227 69.5264 210.227C64.4754 210.227 59.9257 209.395 56.6572 208.067C55.0217 207.403 53.7315 206.625 52.858 205.786C51.9859 204.949 51.5605 204.084 51.5605 203.227C51.5605 202.371 51.9859 201.506 52.858 200.669C53.7315 199.83 55.0217 199.052 56.6572 198.387C59.9257 197.06 64.4754 196.227 69.5264 196.227C74.5775 196.227 79.1272 197.06 82.3957 198.387C84.0311 199.052 85.3214 199.83 86.1949 200.669C87.067 201.506 87.4923 202.371 87.4923 203.227Z" stroke="url(#paint9_linear_239_7491)"/>
</g>
<ellipse cx="100.549" cy="247.023" rx="18.4659" ry="7.5" fill="#EFF6FF"/>
<path d="M82.083 208.523H119.015V246.523H82.083V208.523Z" fill="url(#paint10_linear_239_7491)"/>
<g filter="url(#filter5_d_239_7491)">
<ellipse cx="100.549" cy="209.023" rx="18.4659" ry="7.5" fill="#D1E5FD"/>
<path d="M118.515 209.023C118.515 209.879 118.089 210.744 117.217 211.581C116.344 212.42 115.054 213.198 113.418 213.863C110.15 215.19 105.6 216.023 100.549 216.023C95.4978 216.023 90.9481 215.19 87.6797 213.863C86.0442 213.198 84.7539 212.42 83.8805 211.581C83.0084 210.744 82.583 209.879 82.583 209.023C82.583 208.166 83.0084 207.301 83.8805 206.464C84.7539 205.625 86.0442 204.847 87.6797 204.183C90.9481 202.855 95.4978 202.023 100.549 202.023C105.6 202.023 110.15 202.855 113.418 204.183C115.054 204.847 116.344 205.625 117.217 206.464C118.089 207.301 118.515 208.166 118.515 209.023Z" stroke="url(#paint11_linear_239_7491)"/>
</g>
<ellipse cx="223.163" cy="247.591" rx="18.4659" ry="7.5" fill="#EFF6FF"/>
<path d="M204.697 198.091H241.629V247.091H204.697V198.091Z" fill="url(#paint12_linear_239_7491)"/>
<g filter="url(#filter6_d_239_7491)">
<ellipse cx="223.163" cy="198.591" rx="18.4659" ry="7.5" fill="#D1E5FD"/>
<path d="M241.129 198.591C241.129 199.448 240.703 200.312 239.831 201.15C238.958 201.988 237.667 202.767 236.032 203.431C232.763 204.758 228.214 205.591 223.163 205.591C218.112 205.591 213.562 204.758 210.293 203.431C208.658 202.767 207.368 201.988 206.494 201.15C205.622 200.312 205.197 199.448 205.197 198.591C205.197 197.734 205.622 196.87 206.494 196.032C207.368 195.194 208.658 194.415 210.293 193.751C213.562 192.423 218.112 191.591 223.163 191.591C228.214 191.591 232.763 192.423 236.032 193.751C237.667 194.415 238.958 195.194 239.831 196.032C240.703 196.87 241.129 197.734 241.129 198.591Z" stroke="url(#paint13_linear_239_7491)"/>
</g>
<ellipse cx="35.5492" cy="250.841" rx="18.4659" ry="7.5" fill="#EFF6FF"/>
<path d="M17.0833 185.341H54.0151V250.341H17.0833V185.341Z" fill="url(#paint14_linear_239_7491)"/>
<g filter="url(#filter7_d_239_7491)">
<ellipse cx="35.5492" cy="185.841" rx="18.4659" ry="7.5" fill="#D1E5FD"/>
<path d="M53.5151 185.841C53.5151 186.698 53.0897 187.562 52.2176 188.4C51.3442 189.238 50.0539 190.017 48.4184 190.681C45.1499 192.008 40.6002 192.841 35.5492 192.841C30.4981 192.841 25.9484 192.008 22.6799 190.681C21.0445 190.017 19.7542 189.238 18.8807 188.4C18.0086 187.562 17.5833 186.698 17.5833 185.841C17.5833 184.984 18.0086 184.12 18.8807 183.282C19.7542 182.444 21.0445 181.665 22.6799 181.001C25.9484 179.673 30.4981 178.841 35.5492 178.841C40.6002 178.841 45.1499 179.673 48.4184 181.001C50.0539 181.665 51.3442 182.444 52.2176 183.282C53.0897 184.12 53.5151 184.984 53.5151 185.841Z" stroke="url(#paint15_linear_239_7491)"/>
</g>
<ellipse cx="41.4583" cy="266.5" rx="18.4659" ry="7.5" fill="#EFF6FF"/>
<path d="M22.9924 212H59.9242V266H22.9924V212Z" fill="url(#paint16_linear_239_7491)"/>
<g filter="url(#filter8_d_239_7491)">
<ellipse cx="41.4583" cy="212.5" rx="18.4659" ry="7.5" fill="#D1E5FD"/>
<path d="M59.4242 212.5C59.4242 213.357 58.9989 214.221 58.1268 215.059C57.2533 215.897 55.963 216.676 54.3275 217.34C51.0591 218.668 46.5094 219.5 41.4583 219.5C36.4072 219.5 31.8575 218.668 28.5891 217.34C26.9536 216.676 25.6633 215.897 24.7899 215.059C23.9178 214.221 23.4924 213.357 23.4924 212.5C23.4924 211.643 23.9178 210.779 24.7899 209.941C25.6633 209.103 26.9536 208.324 28.5891 207.66C31.8575 206.332 36.4072 205.5 41.4583 205.5C46.5094 205.5 51.0591 206.332 54.3275 207.66C55.963 208.324 57.2533 209.103 58.1268 209.941C58.9989 210.779 59.4242 211.643 59.4242 212.5Z" stroke="url(#paint17_linear_239_7491)"/>
</g>
<ellipse cx="20.7764" cy="295.477" rx="18.4659" ry="7.5" fill="#EFF6FF"/>
<path d="M2.31055 240.977H39.2423V294.977H2.31055V240.977Z" fill="url(#paint18_linear_239_7491)"/>
<g filter="url(#filter9_d_239_7491)">
<ellipse cx="20.7764" cy="241.477" rx="18.4659" ry="7.5" fill="#D1E5FD"/>
<path d="M38.7423 241.477C38.7423 242.334 38.317 243.199 37.4449 244.036C36.5714 244.875 35.2811 245.653 33.6457 246.317C30.3772 247.645 25.8275 248.477 20.7764 248.477C15.7254 248.477 11.1757 247.645 7.90723 246.317C6.27175 245.653 4.98145 244.875 4.108 244.036C3.2359 243.199 2.81055 242.334 2.81055 241.477C2.81055 240.621 3.2359 239.756 4.108 238.919C4.98145 238.08 6.27175 237.302 7.90723 236.637C11.1757 235.31 15.7254 234.477 20.7764 234.477C25.8275 234.477 30.3772 235.31 33.6457 236.637C35.2811 237.302 36.5714 238.08 37.4449 238.919C38.317 239.756 38.7423 240.621 38.7423 241.477Z" stroke="url(#paint19_linear_239_7491)"/>
</g>
<ellipse cx="198.049" cy="247.591" rx="18.4659" ry="7.5" fill="#EFF6FF"/>
<path d="M179.583 198.091H216.515V247.091H179.583V198.091Z" fill="url(#paint20_linear_239_7491)"/>
<g filter="url(#filter10_d_239_7491)">
<ellipse cx="198.049" cy="198.591" rx="18.4659" ry="7.5" fill="#D1E5FD"/>
<path d="M216.015 198.591C216.015 199.448 215.589 200.312 214.717 201.15C213.844 201.988 212.554 202.767 210.918 203.431C207.65 204.758 203.1 205.591 198.049 205.591C192.998 205.591 188.448 204.758 185.18 203.431C183.544 202.767 182.254 201.988 181.38 201.15C180.508 200.312 180.083 199.448 180.083 198.591C180.083 197.734 180.508 196.87 181.38 196.032C182.254 195.194 183.544 194.415 185.18 193.751C188.448 192.423 192.998 191.591 198.049 191.591C203.1 191.591 207.65 192.423 210.918 193.751C212.554 194.415 213.844 195.194 214.717 196.032C215.589 196.87 216.015 197.734 216.015 198.591Z" stroke="url(#paint21_linear_239_7491)"/>
</g>
<ellipse cx="71.0035" cy="289.477" rx="18.4659" ry="7.5" fill="#EFF6FF"/>
<path d="M52.5376 240.977H89.4694V288.977H52.5376V240.977Z" fill="url(#paint22_linear_239_7491)"/>
<g filter="url(#filter11_d_239_7491)">
<ellipse cx="71.0035" cy="241.477" rx="18.4659" ry="7.5" fill="#D1E5FD"/>
<path d="M88.9694 241.477C88.9694 242.334 88.544 243.199 87.6719 244.036C86.7985 244.875 85.5082 245.653 83.8727 246.317C80.6043 247.645 76.0546 248.477 71.0035 248.477C65.9524 248.477 61.4027 247.645 58.1343 246.317C56.4988 245.653 55.2085 244.875 54.3351 244.036C53.463 243.199 53.0376 242.334 53.0376 241.477C53.0376 240.621 53.463 239.756 54.3351 238.919C55.2085 238.08 56.4988 237.302 58.1343 236.637C61.4027 235.31 65.9524 234.477 71.0035 234.477C76.0546 234.477 80.6043 235.31 83.8727 236.637C85.5082 237.302 86.7985 238.08 87.6719 238.919C88.544 239.756 88.9694 240.621 88.9694 241.477Z" stroke="url(#paint23_linear_239_7491)"/>
</g>
<ellipse cx="158.163" cy="259.773" rx="18.4659" ry="7.5" fill="#EFF6FF"/>
<path d="M139.697 221.273H176.629V259.273H139.697V221.273Z" fill="url(#paint24_linear_239_7491)"/>
<g filter="url(#filter12_d_239_7491)">
<ellipse cx="158.163" cy="221.773" rx="18.4659" ry="7.5" fill="#D1E5FD"/>
<path d="M176.129 221.773C176.129 222.629 175.703 223.494 174.831 224.331C173.958 225.17 172.667 225.948 171.032 226.613C167.763 227.94 163.214 228.773 158.163 228.773C153.112 228.773 148.562 227.94 145.293 226.613C143.658 225.948 142.368 225.17 141.494 224.331C140.622 223.494 140.197 222.629 140.197 221.773C140.197 220.916 140.622 220.051 141.494 219.214C142.368 218.375 143.658 217.597 145.293 216.933C148.562 215.605 153.112 214.773 158.163 214.773C163.214 214.773 167.763 215.605 171.032 216.933C172.667 217.597 173.958 218.375 174.831 219.214C175.703 220.051 176.129 220.916 176.129 221.773Z" stroke="url(#paint25_linear_239_7491)"/>
</g>
<ellipse cx="42.9356" cy="307.705" rx="18.4659" ry="7.5" fill="#EFF6FF"/>
<path d="M24.4697 257.205H61.4015V307.205H24.4697V257.205Z" fill="url(#paint26_linear_239_7491)"/>
<g filter="url(#filter13_d_239_7491)">
<ellipse cx="42.9356" cy="257.705" rx="18.4659" ry="7.5" fill="#D1E5FD"/>
<path d="M60.9015 257.705C60.9015 258.561 60.4762 259.426 59.6041 260.263C58.7306 261.102 57.4403 261.88 55.8048 262.545C52.5364 263.872 47.9867 264.705 42.9356 264.705C37.8845 264.705 33.3348 263.872 30.0664 262.545C28.4309 261.88 27.1406 261.102 26.2672 260.263C25.3951 259.426 24.9697 258.561 24.9697 257.705C24.9697 256.848 25.3951 255.983 26.2672 255.146C27.1406 254.307 28.4309 253.529 30.0664 252.865C33.3348 251.537 37.8845 250.705 42.9356 250.705C47.9867 250.705 52.5364 251.537 55.8048 252.865C57.4403 253.529 58.7306 254.307 59.6041 255.146C60.4762 255.983 60.9015 256.848 60.9015 257.705Z" stroke="url(#paint27_linear_239_7491)"/>
</g>
<ellipse cx="130.094" cy="288" rx="18.4659" ry="7.5" fill="#EFF6FF"/>
<path d="M111.628 237.5H148.56V287.5H111.628V237.5Z" fill="url(#paint28_linear_239_7491)"/>
<g filter="url(#filter14_d_239_7491)">
<ellipse cx="130.094" cy="238" rx="18.4659" ry="7.5" fill="#D1E5FD"/>
<path d="M148.06 238C148.06 238.857 147.635 239.721 146.763 240.559C145.889 241.397 144.599 242.176 142.964 242.84C139.695 244.168 135.145 245 130.094 245C125.043 245 120.494 244.168 117.225 242.84C115.59 242.176 114.299 241.397 113.426 240.559C112.554 239.721 112.128 238.857 112.128 238C112.128 237.143 112.554 236.279 113.426 235.441C114.299 234.603 115.59 233.824 117.225 233.16C120.494 231.832 125.043 231 130.094 231C135.145 231 139.695 231.832 142.964 233.16C144.599 233.824 145.889 234.603 146.763 235.441C147.635 236.279 148.06 237.143 148.06 238Z" stroke="url(#paint29_linear_239_7491)"/>
</g>
<ellipse cx="131.572" cy="316.977" rx="18.4659" ry="7.5" fill="#EFF6FF"/>
<path d="M113.106 266.477H150.038V316.477H113.106V266.477Z" fill="url(#paint30_linear_239_7491)"/>
<g filter="url(#filter15_d_239_7491)">
<ellipse cx="131.572" cy="266.977" rx="18.4659" ry="7.5" fill="#D1E5FD"/>
<path d="M149.538 266.977C149.538 267.834 149.112 268.699 148.24 269.536C147.367 270.375 146.077 271.153 144.441 271.817C141.173 273.145 136.623 273.977 131.572 273.977C126.521 273.977 121.971 273.145 118.703 271.817C117.067 271.153 115.777 270.375 114.903 269.536C114.031 268.699 113.606 267.834 113.606 266.977C113.606 266.121 114.031 265.256 114.903 264.419C115.777 263.58 117.067 262.802 118.703 262.137C121.971 260.81 126.521 259.977 131.572 259.977C136.623 259.977 141.173 260.81 144.441 262.137C146.077 262.802 147.367 263.58 148.24 264.419C149.112 265.256 149.538 266.121 149.538 266.977Z" stroke="url(#paint31_linear_239_7491)"/>
</g>
<ellipse cx="178.844" cy="291.068" rx="18.4659" ry="7.5" fill="#EFF6FF"/>
<path d="M160.378 252.568H197.31V290.568H160.378V252.568Z" fill="url(#paint32_linear_239_7491)"/>
<g filter="url(#filter16_d_239_7491)">
<ellipse cx="178.844" cy="253.068" rx="18.4659" ry="7.5" fill="#D1E5FD"/>
<path d="M196.81 253.068C196.81 253.925 196.385 254.789 195.513 255.627C194.639 256.466 193.349 257.244 191.714 257.908C188.445 259.236 183.895 260.068 178.844 260.068C173.793 260.068 169.244 259.236 165.975 257.908C164.34 257.244 163.049 256.466 162.176 255.627C161.304 254.789 160.878 253.925 160.878 253.068C160.878 252.211 161.304 251.347 162.176 250.509C163.049 249.671 164.34 248.892 165.975 248.228C169.244 246.901 173.793 246.068 178.844 246.068C183.895 246.068 188.445 246.901 191.714 248.228C193.349 248.892 194.639 249.671 195.513 250.509C196.385 251.347 196.81 252.211 196.81 253.068Z" stroke="url(#paint33_linear_239_7491)"/>
</g>
<ellipse cx="240.89" cy="257.455" rx="18.4659" ry="7.5" fill="#EFF6FF"/>
<path d="M222.424 218.955H259.356V256.955H222.424V218.955Z" fill="url(#paint34_linear_239_7491)"/>
<g filter="url(#filter17_d_239_7491)">
<ellipse cx="240.89" cy="219.455" rx="18.4659" ry="7.5" fill="#D1E5FD"/>
<path d="M258.856 219.455C258.856 220.311 258.43 221.176 257.558 222.013C256.685 222.852 255.394 223.63 253.759 224.295C250.491 225.622 245.941 226.455 240.89 226.455C235.839 226.455 231.289 225.622 228.021 224.295C226.385 223.63 225.095 222.852 224.221 222.013C223.349 221.176 222.924 220.311 222.924 219.455C222.924 218.598 223.349 217.733 224.221 216.896C225.095 216.057 226.385 215.279 228.021 214.615C231.289 213.287 235.839 212.455 240.89 212.455C245.941 212.455 250.491 213.287 253.759 214.615C255.394 215.279 256.685 216.057 257.558 216.896C258.43 217.733 258.856 218.598 258.856 219.455Z" stroke="url(#paint35_linear_239_7491)"/>
</g>
<ellipse cx="91.6851" cy="310.773" rx="18.4659" ry="7.5" fill="#EFF6FF"/>
<path d="M73.2192 272.273H110.151V310.273H73.2192V272.273Z" fill="url(#paint36_linear_239_7491)"/>
<g filter="url(#filter18_d_239_7491)">
<ellipse cx="91.6851" cy="272.773" rx="18.4659" ry="7.5" fill="#D1E5FD"/>
<path d="M109.651 272.773C109.651 273.629 109.226 274.494 108.354 275.331C107.48 276.17 106.19 276.948 104.554 277.613C101.286 278.94 96.7362 279.773 91.6851 279.773C86.6341 279.773 82.0843 278.94 78.8159 277.613C77.1804 276.948 75.8901 276.17 75.0167 275.331C74.1446 274.494 73.7192 273.629 73.7192 272.773C73.7192 271.916 74.1446 271.051 75.0167 270.214C75.8901 269.375 77.1804 268.597 78.8159 267.933C82.0843 266.605 86.6341 265.773 91.6851 265.773C96.7362 265.773 101.286 266.605 104.554 267.933C106.19 268.597 107.48 269.375 108.354 270.214C109.226 271.051 109.651 271.916 109.651 272.773Z" stroke="url(#paint37_linear_239_7491)"/>
</g>
<ellipse cx="211.344" cy="281.795" rx="18.4659" ry="7.5" fill="#EFF6FF"/>
<path d="M192.878 243.295H229.81V281.295H192.878V243.295Z" fill="url(#paint38_linear_239_7491)"/>
<g filter="url(#filter19_d_239_7491)">
<ellipse cx="211.344" cy="243.795" rx="18.4659" ry="7.5" fill="#D1E5FD"/>
<path d="M229.31 243.795C229.31 244.652 228.885 245.517 228.013 246.354C227.139 247.193 225.849 247.971 224.214 248.635C220.945 249.963 216.395 250.795 211.344 250.795C206.293 250.795 201.744 249.963 198.475 248.635C196.84 247.971 195.549 247.193 194.676 246.354C193.804 245.517 193.378 244.652 193.378 243.795C193.378 242.939 193.804 242.074 194.676 241.237C195.549 240.398 196.84 239.62 198.475 238.955C201.744 237.628 206.293 236.795 211.344 236.795C216.395 236.795 220.945 237.628 224.214 238.955C225.849 239.62 227.139 240.398 228.013 241.237C228.885 242.074 229.31 242.939 229.31 243.795Z" stroke="url(#paint39_linear_239_7491)"/>
</g>
<ellipse cx="183.276" cy="310.023" rx="18.4659" ry="7.5" fill="#EFF6FF"/>
<path d="M164.81 259.523H201.742V309.523H164.81V259.523Z" fill="url(#paint40_linear_239_7491)"/>
<g filter="url(#filter20_d_239_7491)">
<ellipse cx="183.276" cy="260.023" rx="18.4659" ry="7.5" fill="#D1E5FD"/>
<path d="M201.242 260.023C201.242 260.879 200.817 261.744 199.944 262.581C199.071 263.42 197.781 264.198 196.145 264.863C192.877 266.19 188.327 267.023 183.276 267.023C178.225 267.023 173.675 266.19 170.407 264.863C168.771 264.198 167.481 263.42 166.608 262.581C165.735 261.744 165.31 260.879 165.31 260.023C165.31 259.166 165.735 258.301 166.608 257.464C167.481 256.625 168.771 255.847 170.407 255.183C173.675 253.855 178.225 253.023 183.276 253.023C188.327 253.023 192.877 253.855 196.145 255.183C197.781 255.847 199.071 256.625 199.944 257.464C200.817 258.301 201.242 259.166 201.242 260.023Z" stroke="url(#paint41_linear_239_7491)"/>
</g>
<ellipse cx="221.685" cy="307.295" rx="18.4659" ry="7.5" fill="#EFF6FF"/>
<path d="M203.219 268.795H240.151V306.795H203.219V268.795Z" fill="url(#paint42_linear_239_7491)"/>
<g filter="url(#filter21_d_239_7491)">
<ellipse cx="221.685" cy="269.295" rx="18.4659" ry="7.5" fill="#D1E5FD"/>
<path d="M239.651 269.295C239.651 270.152 239.226 271.017 238.354 271.854C237.48 272.693 236.19 273.471 234.554 274.135C231.286 275.463 226.736 276.295 221.685 276.295C216.634 276.295 212.084 275.463 208.816 274.135C207.18 273.471 205.89 272.693 205.017 271.854C204.145 271.017 203.719 270.152 203.719 269.295C203.719 268.439 204.145 267.574 205.017 266.737C205.89 265.898 207.18 265.12 208.816 264.455C212.084 263.128 216.634 262.295 221.685 262.295C226.736 262.295 231.286 263.128 234.554 264.455C236.19 265.12 237.48 265.898 238.354 266.737C239.226 267.574 239.651 268.439 239.651 269.295Z" stroke="url(#paint43_linear_239_7491)"/>
</g>
<defs>
<filter id="filter0_d_239_7491" x="104.242" y="186.455" width="36.9316" height="16" filterUnits="userSpaceOnUse" color-interpolation-filters="sRGB">
<feFlood flood-opacity="0" result="BackgroundImageFix"/>
<feColorMatrix in="SourceAlpha" type="matrix" values="0 0 0 0 0 0 0 0 0 0 0 0 0 0 0 0 0 0 127 0" result="hardAlpha"/>
<feOffset dy="1"/>
<feComposite in2="hardAlpha" operator="out"/>
<feColorMatrix type="matrix" values="0 0 0 0 1 0 0 0 0 1 0 0 0 0 1 0 0 0 0.25 0"/>
<feBlend mode="normal" in2="BackgroundImageFix" result="effect1_dropShadow_239_7491"/>
<feBlend mode="normal" in="SourceGraphic" in2="effect1_dropShadow_239_7491" result="shape"/>
</filter>
<filter id="filter1_d_239_7491" x="152.992" y="179.5" width="36.9316" height="16" filterUnits="userSpaceOnUse" color-interpolation-filters="sRGB">
<feFlood flood-opacity="0" result="BackgroundImageFix"/>
<feColorMatrix in="SourceAlpha" type="matrix" values="0 0 0 0 0 0 0 0 0 0 0 0 0 0 0 0 0 0 127 0" result="hardAlpha"/>
<feOffset dy="1"/>
<feComposite in2="hardAlpha" operator="out"/>
<feColorMatrix type="matrix" values="0 0 0 0 1 0 0 0 0 1 0 0 0 0 1 0 0 0 0.25 0"/>
<feBlend mode="normal" in2="BackgroundImageFix" result="effect1_dropShadow_239_7491"/>
<feBlend mode="normal" in="SourceGraphic" in2="effect1_dropShadow_239_7491" result="shape"/>
</filter>
<filter id="filter2_d_239_7491" x="124.924" y="1" width="36.9316" height="16" filterUnits="userSpaceOnUse" color-interpolation-filters="sRGB">
<feFlood flood-opacity="0" result="BackgroundImageFix"/>
<feColorMatrix in="SourceAlpha" type="matrix" values="0 0 0 0 0 0 0 0 0 0 0 0 0 0 0 0 0 0 127 0" result="hardAlpha"/>
<feOffset dy="1"/>
<feComposite in2="hardAlpha" operator="out"/>
<feColorMatrix type="matrix" values="0 0 0 0 1 0 0 0 0 1 0 0 0 0 1 0 0 0 0.25 0"/>
<feBlend mode="normal" in2="BackgroundImageFix" result="effect1_dropShadow_239_7491"/>
<feBlend mode="normal" in="SourceGraphic" in2="effect1_dropShadow_239_7491" result="shape"/>
</filter>
<filter id="filter3_d_239_7491" x="71.7422" y="177.182" width="36.9316" height="16" filterUnits="userSpaceOnUse" color-interpolation-filters="sRGB">
<feFlood flood-opacity="0" result="BackgroundImageFix"/>
<feColorMatrix in="SourceAlpha" type="matrix" values="0 0 0 0 0 0 0 0 0 0 0 0 0 0 0 0 0 0 127 0" result="hardAlpha"/>
<feOffset dy="1"/>
<feComposite in2="hardAlpha" operator="out"/>
<feColorMatrix type="matrix" values="0 0 0 0 1 0 0 0 0 1 0 0 0 0 1 0 0 0 0.25 0"/>
<feBlend mode="normal" in2="BackgroundImageFix" result="effect1_dropShadow_239_7491"/>
<feBlend mode="normal" in="SourceGraphic" in2="effect1_dropShadow_239_7491" result="shape"/>
</filter>
<filter id="filter4_d_239_7491" x="51.0605" y="195.727" width="36.9316" height="16" filterUnits="userSpaceOnUse" color-interpolation-filters="sRGB">
<feFlood flood-opacity="0" result="BackgroundImageFix"/>
<feColorMatrix in="SourceAlpha" type="matrix" values="0 0 0 0 0 0 0 0 0 0 0 0 0 0 0 0 0 0 127 0" result="hardAlpha"/>
<feOffset dy="1"/>
<feComposite in2="hardAlpha" operator="out"/>
<feColorMatrix type="matrix" values="0 0 0 0 1 0 0 0 0 1 0 0 0 0 1 0 0 0 0.25 0"/>
<feBlend mode="normal" in2="BackgroundImageFix" result="effect1_dropShadow_239_7491"/>
<feBlend mode="normal" in="SourceGraphic" in2="effect1_dropShadow_239_7491" result="shape"/>
</filter>
<filter id="filter5_d_239_7491" x="82.083" y="201.523" width="36.9316" height="16" filterUnits="userSpaceOnUse" color-interpolation-filters="sRGB">
<feFlood flood-opacity="0" result="BackgroundImageFix"/>
<feColorMatrix in="SourceAlpha" type="matrix" values="0 0 0 0 0 0 0 0 0 0 0 0 0 0 0 0 0 0 127 0" result="hardAlpha"/>
<feOffset dy="1"/>
<feComposite in2="hardAlpha" operator="out"/>
<feColorMatrix type="matrix" values="0 0 0 0 1 0 0 0 0 1 0 0 0 0 1 0 0 0 0.25 0"/>
<feBlend mode="normal" in2="BackgroundImageFix" result="effect1_dropShadow_239_7491"/>
<feBlend mode="normal" in="SourceGraphic" in2="effect1_dropShadow_239_7491" result="shape"/>
</filter>
<filter id="filter6_d_239_7491" x="204.697" y="191.091" width="36.9316" height="16" filterUnits="userSpaceOnUse" color-interpolation-filters="sRGB">
<feFlood flood-opacity="0" result="BackgroundImageFix"/>
<feColorMatrix in="SourceAlpha" type="matrix" values="0 0 0 0 0 0 0 0 0 0 0 0 0 0 0 0 0 0 127 0" result="hardAlpha"/>
<feOffset dy="1"/>
<feComposite in2="hardAlpha" operator="out"/>
<feColorMatrix type="matrix" values="0 0 0 0 1 0 0 0 0 1 0 0 0 0 1 0 0 0 0.25 0"/>
<feBlend mode="normal" in2="BackgroundImageFix" result="effect1_dropShadow_239_7491"/>
<feBlend mode="normal" in="SourceGraphic" in2="effect1_dropShadow_239_7491" result="shape"/>
</filter>
<filter id="filter7_d_239_7491" x="17.0833" y="178.341" width="36.9319" height="16" filterUnits="userSpaceOnUse" color-interpolation-filters="sRGB">
<feFlood flood-opacity="0" result="BackgroundImageFix"/>
<feColorMatrix in="SourceAlpha" type="matrix" values="0 0 0 0 0 0 0 0 0 0 0 0 0 0 0 0 0 0 127 0" result="hardAlpha"/>
<feOffset dy="1"/>
<feComposite in2="hardAlpha" operator="out"/>
<feColorMatrix type="matrix" values="0 0 0 0 1 0 0 0 0 1 0 0 0 0 1 0 0 0 0.25 0"/>
<feBlend mode="normal" in2="BackgroundImageFix" result="effect1_dropShadow_239_7491"/>
<feBlend mode="normal" in="SourceGraphic" in2="effect1_dropShadow_239_7491" result="shape"/>
</filter>
<filter id="filter8_d_239_7491" x="22.9924" y="205" width="36.9319" height="16" filterUnits="userSpaceOnUse" color-interpolation-filters="sRGB">
<feFlood flood-opacity="0" result="BackgroundImageFix"/>
<feColorMatrix in="SourceAlpha" type="matrix" values="0 0 0 0 0 0 0 0 0 0 0 0 0 0 0 0 0 0 127 0" result="hardAlpha"/>
<feOffset dy="1"/>
<feComposite in2="hardAlpha" operator="out"/>
<feColorMatrix type="matrix" values="0 0 0 0 1 0 0 0 0 1 0 0 0 0 1 0 0 0 0.25 0"/>
<feBlend mode="normal" in2="BackgroundImageFix" result="effect1_dropShadow_239_7491"/>
<feBlend mode="normal" in="SourceGraphic" in2="effect1_dropShadow_239_7491" result="shape"/>
</filter>
<filter id="filter9_d_239_7491" x="2.31055" y="233.977" width="36.9319" height="16" filterUnits="userSpaceOnUse" color-interpolation-filters="sRGB">
<feFlood flood-opacity="0" result="BackgroundImageFix"/>
<feColorMatrix in="SourceAlpha" type="matrix" values="0 0 0 0 0 0 0 0 0 0 0 0 0 0 0 0 0 0 127 0" result="hardAlpha"/>
<feOffset dy="1"/>
<feComposite in2="hardAlpha" operator="out"/>
<feColorMatrix type="matrix" values="0 0 0 0 1 0 0 0 0 1 0 0 0 0 1 0 0 0 0.25 0"/>
<feBlend mode="normal" in2="BackgroundImageFix" result="effect1_dropShadow_239_7491"/>
<feBlend mode="normal" in="SourceGraphic" in2="effect1_dropShadow_239_7491" result="shape"/>
</filter>
<filter id="filter10_d_239_7491" x="179.583" y="191.091" width="36.9316" height="16" filterUnits="userSpaceOnUse" color-interpolation-filters="sRGB">
<feFlood flood-opacity="0" result="BackgroundImageFix"/>
<feColorMatrix in="SourceAlpha" type="matrix" values="0 0 0 0 0 0 0 0 0 0 0 0 0 0 0 0 0 0 127 0" result="hardAlpha"/>
<feOffset dy="1"/>
<feComposite in2="hardAlpha" operator="out"/>
<feColorMatrix type="matrix" values="0 0 0 0 1 0 0 0 0 1 0 0 0 0 1 0 0 0 0.25 0"/>
<feBlend mode="normal" in2="BackgroundImageFix" result="effect1_dropShadow_239_7491"/>
<feBlend mode="normal" in="SourceGraphic" in2="effect1_dropShadow_239_7491" result="shape"/>
</filter>
<filter id="filter11_d_239_7491" x="52.5376" y="233.977" width="36.9316" height="16" filterUnits="userSpaceOnUse" color-interpolation-filters="sRGB">
<feFlood flood-opacity="0" result="BackgroundImageFix"/>
<feColorMatrix in="SourceAlpha" type="matrix" values="0 0 0 0 0 0 0 0 0 0 0 0 0 0 0 0 0 0 127 0" result="hardAlpha"/>
<feOffset dy="1"/>
<feComposite in2="hardAlpha" operator="out"/>
<feColorMatrix type="matrix" values="0 0 0 0 1 0 0 0 0 1 0 0 0 0 1 0 0 0 0.25 0"/>
<feBlend mode="normal" in2="BackgroundImageFix" result="effect1_dropShadow_239_7491"/>
<feBlend mode="normal" in="SourceGraphic" in2="effect1_dropShadow_239_7491" result="shape"/>
</filter>
<filter id="filter12_d_239_7491" x="139.697" y="214.273" width="36.9316" height="16" filterUnits="userSpaceOnUse" color-interpolation-filters="sRGB">
<feFlood flood-opacity="0" result="BackgroundImageFix"/>
<feColorMatrix in="SourceAlpha" type="matrix" values="0 0 0 0 0 0 0 0 0 0 0 0 0 0 0 0 0 0 127 0" result="hardAlpha"/>
<feOffset dy="1"/>
<feComposite in2="hardAlpha" operator="out"/>
<feColorMatrix type="matrix" values="0 0 0 0 1 0 0 0 0 1 0 0 0 0 1 0 0 0 0.25 0"/>
<feBlend mode="normal" in2="BackgroundImageFix" result="effect1_dropShadow_239_7491"/>
<feBlend mode="normal" in="SourceGraphic" in2="effect1_dropShadow_239_7491" result="shape"/>
</filter>
<filter id="filter13_d_239_7491" x="24.4697" y="250.205" width="36.9316" height="16" filterUnits="userSpaceOnUse" color-interpolation-filters="sRGB">
<feFlood flood-opacity="0" result="BackgroundImageFix"/>
<feColorMatrix in="SourceAlpha" type="matrix" values="0 0 0 0 0 0 0 0 0 0 0 0 0 0 0 0 0 0 127 0" result="hardAlpha"/>
<feOffset dy="1"/>
<feComposite in2="hardAlpha" operator="out"/>
<feColorMatrix type="matrix" values="0 0 0 0 1 0 0 0 0 1 0 0 0 0 1 0 0 0 0.25 0"/>
<feBlend mode="normal" in2="BackgroundImageFix" result="effect1_dropShadow_239_7491"/>
<feBlend mode="normal" in="SourceGraphic" in2="effect1_dropShadow_239_7491" result="shape"/>
</filter>
<filter id="filter14_d_239_7491" x="111.628" y="230.5" width="36.9316" height="16" filterUnits="userSpaceOnUse" color-interpolation-filters="sRGB">
<feFlood flood-opacity="0" result="BackgroundImageFix"/>
<feColorMatrix in="SourceAlpha" type="matrix" values="0 0 0 0 0 0 0 0 0 0 0 0 0 0 0 0 0 0 127 0" result="hardAlpha"/>
<feOffset dy="1"/>
<feComposite in2="hardAlpha" operator="out"/>
<feColorMatrix type="matrix" values="0 0 0 0 1 0 0 0 0 1 0 0 0 0 1 0 0 0 0.25 0"/>
<feBlend mode="normal" in2="BackgroundImageFix" result="effect1_dropShadow_239_7491"/>
<feBlend mode="normal" in="SourceGraphic" in2="effect1_dropShadow_239_7491" result="shape"/>
</filter>
<filter id="filter15_d_239_7491" x="113.106" y="259.477" width="36.9316" height="16" filterUnits="userSpaceOnUse" color-interpolation-filters="sRGB">
<feFlood flood-opacity="0" result="BackgroundImageFix"/>
<feColorMatrix in="SourceAlpha" type="matrix" values="0 0 0 0 0 0 0 0 0 0 0 0 0 0 0 0 0 0 127 0" result="hardAlpha"/>
<feOffset dy="1"/>
<feComposite in2="hardAlpha" operator="out"/>
<feColorMatrix type="matrix" values="0 0 0 0 1 0 0 0 0 1 0 0 0 0 1 0 0 0 0.25 0"/>
<feBlend mode="normal" in2="BackgroundImageFix" result="effect1_dropShadow_239_7491"/>
<feBlend mode="normal" in="SourceGraphic" in2="effect1_dropShadow_239_7491" result="shape"/>
</filter>
<filter id="filter16_d_239_7491" x="160.378" y="245.568" width="36.9316" height="16" filterUnits="userSpaceOnUse" color-interpolation-filters="sRGB">
<feFlood flood-opacity="0" result="BackgroundImageFix"/>
<feColorMatrix in="SourceAlpha" type="matrix" values="0 0 0 0 0 0 0 0 0 0 0 0 0 0 0 0 0 0 127 0" result="hardAlpha"/>
<feOffset dy="1"/>
<feComposite in2="hardAlpha" operator="out"/>
<feColorMatrix type="matrix" values="0 0 0 0 1 0 0 0 0 1 0 0 0 0 1 0 0 0 0.25 0"/>
<feBlend mode="normal" in2="BackgroundImageFix" result="effect1_dropShadow_239_7491"/>
<feBlend mode="normal" in="SourceGraphic" in2="effect1_dropShadow_239_7491" result="shape"/>
</filter>
<filter id="filter17_d_239_7491" x="222.424" y="211.955" width="36.9316" height="16" filterUnits="userSpaceOnUse" color-interpolation-filters="sRGB">
<feFlood flood-opacity="0" result="BackgroundImageFix"/>
<feColorMatrix in="SourceAlpha" type="matrix" values="0 0 0 0 0 0 0 0 0 0 0 0 0 0 0 0 0 0 127 0" result="hardAlpha"/>
<feOffset dy="1"/>
<feComposite in2="hardAlpha" operator="out"/>
<feColorMatrix type="matrix" values="0 0 0 0 1 0 0 0 0 1 0 0 0 0 1 0 0 0 0.25 0"/>
<feBlend mode="normal" in2="BackgroundImageFix" result="effect1_dropShadow_239_7491"/>
<feBlend mode="normal" in="SourceGraphic" in2="effect1_dropShadow_239_7491" result="shape"/>
</filter>
<filter id="filter18_d_239_7491" x="73.2192" y="265.273" width="36.9316" height="16" filterUnits="userSpaceOnUse" color-interpolation-filters="sRGB">
<feFlood flood-opacity="0" result="BackgroundImageFix"/>
<feColorMatrix in="SourceAlpha" type="matrix" values="0 0 0 0 0 0 0 0 0 0 0 0 0 0 0 0 0 0 127 0" result="hardAlpha"/>
<feOffset dy="1"/>
<feComposite in2="hardAlpha" operator="out"/>
<feColorMatrix type="matrix" values="0 0 0 0 1 0 0 0 0 1 0 0 0 0 1 0 0 0 0.25 0"/>
<feBlend mode="normal" in2="BackgroundImageFix" result="effect1_dropShadow_239_7491"/>
<feBlend mode="normal" in="SourceGraphic" in2="effect1_dropShadow_239_7491" result="shape"/>
</filter>
<filter id="filter19_d_239_7491" x="192.878" y="236.295" width="36.9316" height="16" filterUnits="userSpaceOnUse" color-interpolation-filters="sRGB">
<feFlood flood-opacity="0" result="BackgroundImageFix"/>
<feColorMatrix in="SourceAlpha" type="matrix" values="0 0 0 0 0 0 0 0 0 0 0 0 0 0 0 0 0 0 127 0" result="hardAlpha"/>
<feOffset dy="1"/>
<feComposite in2="hardAlpha" operator="out"/>
<feColorMatrix type="matrix" values="0 0 0 0 1 0 0 0 0 1 0 0 0 0 1 0 0 0 0.25 0"/>
<feBlend mode="normal" in2="BackgroundImageFix" result="effect1_dropShadow_239_7491"/>
<feBlend mode="normal" in="SourceGraphic" in2="effect1_dropShadow_239_7491" result="shape"/>
</filter>
<filter id="filter20_d_239_7491" x="164.81" y="252.523" width="36.9316" height="16" filterUnits="userSpaceOnUse" color-interpolation-filters="sRGB">
<feFlood flood-opacity="0" result="BackgroundImageFix"/>
<feColorMatrix in="SourceAlpha" type="matrix" values="0 0 0 0 0 0 0 0 0 0 0 0 0 0 0 0 0 0 127 0" result="hardAlpha"/>
<feOffset dy="1"/>
<feComposite in2="hardAlpha" operator="out"/>
<feColorMatrix type="matrix" values="0 0 0 0 1 0 0 0 0 1 0 0 0 0 1 0 0 0 0.25 0"/>
<feBlend mode="normal" in2="BackgroundImageFix" result="effect1_dropShadow_239_7491"/>
<feBlend mode="normal" in="SourceGraphic" in2="effect1_dropShadow_239_7491" result="shape"/>
</filter>
<filter id="filter21_d_239_7491" x="203.219" y="261.795" width="36.9316" height="16" filterUnits="userSpaceOnUse" color-interpolation-filters="sRGB">
<feFlood flood-opacity="0" result="BackgroundImageFix"/>
<feColorMatrix in="SourceAlpha" type="matrix" values="0 0 0 0 0 0 0 0 0 0 0 0 0 0 0 0 0 0 127 0" result="hardAlpha"/>
<feOffset dy="1"/>
<feComposite in2="hardAlpha" operator="out"/>
<feColorMatrix type="matrix" values="0 0 0 0 1 0 0 0 0 1 0 0 0 0 1 0 0 0 0.25 0"/>
<feBlend mode="normal" in2="BackgroundImageFix" result="effect1_dropShadow_239_7491"/>
<feBlend mode="normal" in="SourceGraphic" in2="effect1_dropShadow_239_7491" result="shape"/>
</filter>
<linearGradient id="paint0_linear_239_7491" x1="120.188" y1="198.267" x2="120.188" y2="225.381" gradientUnits="userSpaceOnUse">
<stop stop-color="#71ACF1"/>
<stop offset="1" stop-color="#EFF6FF"/>
</linearGradient>
<linearGradient id="paint1_linear_239_7491" x1="122.708" y1="186.455" x2="122.708" y2="201.455" gradientUnits="userSpaceOnUse">
<stop stop-color="white"/>
<stop offset="1" stop-color="white" stop-opacity="0"/>
</linearGradient>
<linearGradient id="paint2_linear_239_7491" x1="168.938" y1="191.312" x2="168.938" y2="218.427" gradientUnits="userSpaceOnUse">
<stop stop-color="#71ACF1"/>
<stop offset="1" stop-color="#EFF6FF"/>
</linearGradient>
<linearGradient id="paint3_linear_239_7491" x1="171.458" y1="179.5" x2="171.458" y2="194.5" gradientUnits="userSpaceOnUse">
<stop stop-color="white"/>
<stop offset="1" stop-color="white" stop-opacity="0"/>
</linearGradient>
<linearGradient id="paint4_linear_239_7491" x1="140.87" y1="42.9526" x2="140.87" y2="239.89" gradientUnits="userSpaceOnUse">
<stop stop-color="#FF8A6B"/>
<stop offset="0.12999" stop-color="#FF9247" stop-opacity="0.88"/>
<stop offset="0.46499" stop-color="#FFD36B"/>
<stop offset="1" stop-color="#EFF6FF"/>
</linearGradient>
<linearGradient id="paint5_linear_239_7491" x1="143.39" y1="1" x2="143.39" y2="16" gradientUnits="userSpaceOnUse">
<stop stop-color="white"/>
<stop offset="1" stop-color="white" stop-opacity="0"/>
</linearGradient>
<linearGradient id="paint6_linear_239_7491" x1="87.6882" y1="188.994" x2="87.6882" y2="216.109" gradientUnits="userSpaceOnUse">
<stop stop-color="#71ACF1"/>
<stop offset="1" stop-color="#EFF6FF"/>
</linearGradient>
<linearGradient id="paint7_linear_239_7491" x1="90.2081" y1="177.182" x2="90.2081" y2="192.182" gradientUnits="userSpaceOnUse">
<stop stop-color="white"/>
<stop offset="1" stop-color="white" stop-opacity="0"/>
</linearGradient>
<linearGradient id="paint8_linear_239_7491" x1="67.0066" y1="207.54" x2="67.0066" y2="234.654" gradientUnits="userSpaceOnUse">
<stop stop-color="#71ACF1"/>
<stop offset="1" stop-color="#EFF6FF"/>
</linearGradient>
<linearGradient id="paint9_linear_239_7491" x1="69.5264" y1="195.727" x2="69.5264" y2="210.727" gradientUnits="userSpaceOnUse">
<stop stop-color="white"/>
<stop offset="1" stop-color="white" stop-opacity="0"/>
</linearGradient>
<linearGradient id="paint10_linear_239_7491" x1="98.029" y1="213.335" x2="98.029" y2="240.45" gradientUnits="userSpaceOnUse">
<stop stop-color="#71ACF1"/>
<stop offset="1" stop-color="#EFF6FF"/>
</linearGradient>
<linearGradient id="paint11_linear_239_7491" x1="100.549" y1="201.523" x2="100.549" y2="216.523" gradientUnits="userSpaceOnUse">
<stop stop-color="white"/>
<stop offset="1" stop-color="white" stop-opacity="0"/>
</linearGradient>
<linearGradient id="paint12_linear_239_7491" x1="220.643" y1="204.296" x2="220.643" y2="239.26" gradientUnits="userSpaceOnUse">
<stop stop-color="#71ACF1"/>
<stop offset="1" stop-color="#EFF6FF"/>
</linearGradient>
<linearGradient id="paint13_linear_239_7491" x1="223.163" y1="191.091" x2="223.163" y2="206.091" gradientUnits="userSpaceOnUse">
<stop stop-color="white"/>
<stop offset="1" stop-color="white" stop-opacity="0"/>
</linearGradient>
<linearGradient id="paint14_linear_239_7491" x1="33.0293" y1="193.573" x2="33.0293" y2="239.953" gradientUnits="userSpaceOnUse">
<stop stop-color="#71ACF1"/>
<stop offset="1" stop-color="#EFF6FF"/>
</linearGradient>
<linearGradient id="paint15_linear_239_7491" x1="35.5492" y1="178.341" x2="35.5492" y2="193.341" gradientUnits="userSpaceOnUse">
<stop stop-color="white"/>
<stop offset="1" stop-color="white" stop-opacity="0"/>
</linearGradient>
<linearGradient id="paint16_linear_239_7491" x1="38.9384" y1="218.839" x2="38.9384" y2="257.37" gradientUnits="userSpaceOnUse">
<stop stop-color="#71ACF1"/>
<stop offset="1" stop-color="#EFF6FF"/>
</linearGradient>
<linearGradient id="paint17_linear_239_7491" x1="41.4583" y1="205" x2="41.4583" y2="220" gradientUnits="userSpaceOnUse">
<stop stop-color="white"/>
<stop offset="1" stop-color="white" stop-opacity="0"/>
</linearGradient>
<linearGradient id="paint18_linear_239_7491" x1="18.2566" y1="247.816" x2="18.2566" y2="286.347" gradientUnits="userSpaceOnUse">
<stop stop-color="#71ACF1"/>
<stop offset="1" stop-color="#EFF6FF"/>
</linearGradient>
<linearGradient id="paint19_linear_239_7491" x1="20.7764" y1="233.977" x2="20.7764" y2="248.977" gradientUnits="userSpaceOnUse">
<stop stop-color="white"/>
<stop offset="1" stop-color="white" stop-opacity="0"/>
</linearGradient>
<linearGradient id="paint20_linear_239_7491" x1="195.529" y1="204.296" x2="195.529" y2="239.26" gradientUnits="userSpaceOnUse">
<stop stop-color="#71ACF1"/>
<stop offset="1" stop-color="#EFF6FF"/>
</linearGradient>
<linearGradient id="paint21_linear_239_7491" x1="198.049" y1="191.091" x2="198.049" y2="206.091" gradientUnits="userSpaceOnUse">
<stop stop-color="white"/>
<stop offset="1" stop-color="white" stop-opacity="0"/>
</linearGradient>
<linearGradient id="paint22_linear_239_7491" x1="68.4836" y1="247.056" x2="68.4836" y2="281.306" gradientUnits="userSpaceOnUse">
<stop stop-color="#71ACF1"/>
<stop offset="1" stop-color="#EFF6FF"/>
</linearGradient>
<linearGradient id="paint23_linear_239_7491" x1="71.0035" y1="233.977" x2="71.0035" y2="248.977" gradientUnits="userSpaceOnUse">
<stop stop-color="white"/>
<stop offset="1" stop-color="white" stop-opacity="0"/>
</linearGradient>
<linearGradient id="paint24_linear_239_7491" x1="155.643" y1="226.085" x2="155.643" y2="253.2" gradientUnits="userSpaceOnUse">
<stop stop-color="#71ACF1"/>
<stop offset="1" stop-color="#EFF6FF"/>
</linearGradient>
<linearGradient id="paint25_linear_239_7491" x1="158.163" y1="214.273" x2="158.163" y2="229.273" gradientUnits="userSpaceOnUse">
<stop stop-color="white"/>
<stop offset="1" stop-color="white" stop-opacity="0"/>
</linearGradient>
<linearGradient id="paint26_linear_239_7491" x1="40.4157" y1="263.537" x2="40.4157" y2="299.214" gradientUnits="userSpaceOnUse">
<stop stop-color="#71ACF1"/>
<stop offset="1" stop-color="#EFF6FF"/>
</linearGradient>
<linearGradient id="paint27_linear_239_7491" x1="42.9356" y1="250.205" x2="42.9356" y2="265.205" gradientUnits="userSpaceOnUse">
<stop stop-color="white"/>
<stop offset="1" stop-color="white" stop-opacity="0"/>
</linearGradient>
<linearGradient id="paint28_linear_239_7491" x1="127.574" y1="243.832" x2="127.574" y2="279.509" gradientUnits="userSpaceOnUse">
<stop stop-color="#71ACF1"/>
<stop offset="1" stop-color="#EFF6FF"/>
</linearGradient>
<linearGradient id="paint29_linear_239_7491" x1="130.094" y1="230.5" x2="130.094" y2="245.5" gradientUnits="userSpaceOnUse">
<stop stop-color="white"/>
<stop offset="1" stop-color="white" stop-opacity="0"/>
</linearGradient>
<linearGradient id="paint30_linear_239_7491" x1="129.052" y1="272.809" x2="129.052" y2="308.486" gradientUnits="userSpaceOnUse">
<stop stop-color="#71ACF1"/>
<stop offset="1" stop-color="#EFF6FF"/>
</linearGradient>
<linearGradient id="paint31_linear_239_7491" x1="131.572" y1="259.477" x2="131.572" y2="274.477" gradientUnits="userSpaceOnUse">
<stop stop-color="white"/>
<stop offset="1" stop-color="white" stop-opacity="0"/>
</linearGradient>
<linearGradient id="paint32_linear_239_7491" x1="176.324" y1="257.38" x2="176.324" y2="284.495" gradientUnits="userSpaceOnUse">
<stop stop-color="#71ACF1"/>
<stop offset="1" stop-color="#EFF6FF"/>
</linearGradient>
<linearGradient id="paint33_linear_239_7491" x1="178.844" y1="245.568" x2="178.844" y2="260.568" gradientUnits="userSpaceOnUse">
<stop stop-color="white"/>
<stop offset="1" stop-color="white" stop-opacity="0"/>
</linearGradient>
<linearGradient id="paint34_linear_239_7491" x1="238.37" y1="223.767" x2="238.37" y2="250.881" gradientUnits="userSpaceOnUse">
<stop stop-color="#71ACF1"/>
<stop offset="1" stop-color="#EFF6FF"/>
</linearGradient>
<linearGradient id="paint35_linear_239_7491" x1="240.89" y1="211.955" x2="240.89" y2="226.955" gradientUnits="userSpaceOnUse">
<stop stop-color="white"/>
<stop offset="1" stop-color="white" stop-opacity="0"/>
</linearGradient>
<linearGradient id="paint36_linear_239_7491" x1="89.1653" y1="277.085" x2="89.1653" y2="304.2" gradientUnits="userSpaceOnUse">
<stop stop-color="#71ACF1"/>
<stop offset="1" stop-color="#EFF6FF"/>
</linearGradient>
<linearGradient id="paint37_linear_239_7491" x1="91.6851" y1="265.273" x2="91.6851" y2="280.273" gradientUnits="userSpaceOnUse">
<stop stop-color="white"/>
<stop offset="1" stop-color="white" stop-opacity="0"/>
</linearGradient>
<linearGradient id="paint38_linear_239_7491" x1="208.824" y1="248.108" x2="208.824" y2="275.222" gradientUnits="userSpaceOnUse">
<stop stop-color="#71ACF1"/>
<stop offset="1" stop-color="#EFF6FF"/>
</linearGradient>
<linearGradient id="paint39_linear_239_7491" x1="211.344" y1="236.295" x2="211.344" y2="251.295" gradientUnits="userSpaceOnUse">
<stop stop-color="white"/>
<stop offset="1" stop-color="white" stop-opacity="0"/>
</linearGradient>
<linearGradient id="paint40_linear_239_7491" x1="180.756" y1="265.855" x2="180.756" y2="301.532" gradientUnits="userSpaceOnUse">
<stop stop-color="#71ACF1"/>
<stop offset="1" stop-color="#EFF6FF"/>
</linearGradient>
<linearGradient id="paint41_linear_239_7491" x1="183.276" y1="252.523" x2="183.276" y2="267.523" gradientUnits="userSpaceOnUse">
<stop stop-color="white"/>
<stop offset="1" stop-color="white" stop-opacity="0"/>
</linearGradient>
<linearGradient id="paint42_linear_239_7491" x1="219.165" y1="273.608" x2="219.165" y2="300.722" gradientUnits="userSpaceOnUse">
<stop stop-color="#71ACF1"/>
<stop offset="1" stop-color="#EFF6FF"/>
</linearGradient>
<linearGradient id="paint43_linear_239_7491" x1="221.685" y1="261.795" x2="221.685" y2="276.795" gradientUnits="userSpaceOnUse">
<stop stop-color="white"/>
<stop offset="1" stop-color="white" stop-opacity="0"/>
</linearGradient>
</defs>
</svg>
