<svg width="261" height="208" viewBox="0 0 261 208" fill="none" xmlns="http://www.w3.org/2000/svg">
<ellipse cx="77.275" cy="91.5" rx="18.2916" ry="7.5" fill="#E2EFFF"/>
<path d="M58.9834 50H95.5666V91H58.9834V50Z" fill="url(#paint0_linear_239_7544)"/>
<g filter="url(#filter0_d_239_7544)">
<ellipse cx="77.275" cy="50.5" rx="18.2916" ry="7.5" fill="#B2D7F5"/>
<path d="M95.0666 50.5C95.0666 51.3584 94.6444 52.2235 93.7811 53.0603C92.9163 53.8987 91.6388 54.6767 90.0194 55.3407C86.783 56.6677 82.2774 57.5 77.275 57.5C72.2725 57.5 67.767 56.6677 64.5306 55.3407C62.9112 54.6767 61.6337 53.8987 60.7689 53.0603C59.9056 52.2235 59.4834 51.3584 59.4834 50.5C59.4834 49.6416 59.9056 48.7765 60.7689 47.9397C61.6337 47.1013 62.9112 46.3233 64.5306 45.6593C67.767 44.3323 72.2725 43.5 77.275 43.5C82.2774 43.5 86.783 44.3323 90.0194 45.6593C91.6388 46.3233 92.9163 47.1013 93.7811 47.9397C94.6444 48.7765 95.0666 49.6416 95.0666 50.5Z" stroke="url(#paint1_linear_239_7544)"/>
</g>
<ellipse cx="37.7652" cy="104.5" rx="18.2916" ry="7.5" fill="#E2EFFF"/>
<path d="M19.4736 34H56.0568V104H19.4736V34Z" fill="url(#paint2_linear_239_7544)"/>
<g filter="url(#filter1_d_239_7544)">
<ellipse cx="37.7652" cy="34.5" rx="18.2916" ry="7.5" fill="#B2D7F5"/>
<path d="M55.5568 34.5C55.5568 35.3584 55.1346 36.2235 54.2713 37.0603C53.4065 37.8987 52.129 38.6767 50.5096 39.3407C47.2732 40.6677 42.7676 41.5 37.7652 41.5C32.7628 41.5 28.2572 40.6677 25.0208 39.3407C23.4014 38.6767 22.1239 37.8987 21.2591 37.0603C20.3958 36.2235 19.9736 35.3584 19.9736 34.5C19.9736 33.6416 20.3958 32.7765 21.2591 31.9397C22.1239 31.1013 23.4014 30.3233 25.0208 29.6593C28.2572 28.3323 32.7628 27.5 37.7652 27.5C42.7676 27.5 47.2732 28.3323 50.5096 29.6593C52.129 30.3233 53.4065 31.1013 54.2713 31.9397C55.1346 32.7765 55.5568 33.6416 55.5568 34.5Z" stroke="url(#paint3_linear_239_7544)"/>
</g>
<ellipse cx="116.785" cy="100.5" rx="18.2916" ry="7.5" fill="#E2EFFF"/>
<path d="M98.4932 8H135.076V100H98.4932V8Z" fill="url(#paint4_linear_239_7544)"/>
<g filter="url(#filter2_d_239_7544)">
<ellipse cx="116.785" cy="8.5" rx="18.2916" ry="7.5" fill="#B2D7F5"/>
<path d="M134.576 8.5C134.576 9.35839 134.154 10.2235 133.291 11.0603C132.426 11.8987 131.149 12.6767 129.529 13.3407C126.293 14.6677 121.787 15.5 116.785 15.5C111.782 15.5 107.277 14.6677 104.04 13.3407C102.421 12.6767 101.143 11.8987 100.279 11.0603C99.4153 10.2235 98.9932 9.35839 98.9932 8.5C98.9932 7.64161 99.4153 6.77654 100.279 5.93966C101.143 5.10133 102.421 4.32332 104.04 3.65932C107.277 2.33232 111.782 1.5 116.785 1.5C121.787 1.5 126.293 2.33232 129.529 3.65932C131.149 4.32332 132.426 5.10133 133.291 5.93966C134.154 6.77654 134.576 7.64161 134.576 8.5Z" stroke="url(#paint5_linear_239_7544)"/>
</g>
<ellipse cx="197.079" cy="93" rx="18.2916" ry="7.5" fill="#E2EFFF"/>
<path d="M178.787 18.5H215.37V92.5H178.787V18.5Z" fill="url(#paint6_linear_239_7544)"/>
<g filter="url(#filter3_d_239_7544)">
<ellipse cx="197.079" cy="19" rx="18.2916" ry="7.5" fill="#B2D7F5"/>
<path d="M214.87 19C214.87 19.8584 214.448 20.7235 213.585 21.5603C212.72 22.3987 211.443 23.1767 209.823 23.8407C206.587 25.1677 202.081 26 197.079 26C192.076 26 187.571 25.1677 184.334 23.8407C182.715 23.1767 181.437 22.3987 180.573 21.5603C179.709 20.7235 179.287 19.8584 179.287 19C179.287 18.1416 179.709 17.2765 180.573 16.4397C181.437 15.6013 182.715 14.8233 184.334 14.1593C187.571 12.8323 192.076 12 197.079 12C202.081 12 206.587 12.8323 209.823 14.1593C211.443 14.8233 212.72 15.6013 213.585 16.4397C214.448 17.2765 214.87 18.1416 214.87 19Z" stroke="url(#paint7_linear_239_7544)"/>
</g>
<ellipse cx="155.02" cy="88.5" rx="18.2916" ry="7.5" fill="#E2EFFF"/>
<path d="M136.729 39H173.312V88H136.729V39Z" fill="url(#paint8_linear_239_7544)"/>
<g filter="url(#filter4_d_239_7544)">
<ellipse cx="155.02" cy="39.5" rx="18.2916" ry="7.5" fill="#B2D7F5"/>
<path d="M172.812 39.5C172.812 40.3584 172.389 41.2235 171.526 42.0603C170.661 42.8987 169.384 43.6767 167.765 44.3407C164.528 45.6677 160.023 46.5 155.02 46.5C150.018 46.5 145.512 45.6677 142.276 44.3407C140.656 43.6767 139.379 42.8987 138.514 42.0603C137.651 41.2235 137.229 40.3584 137.229 39.5C137.229 38.6416 137.651 37.7765 138.514 36.9397C139.379 36.1013 140.656 35.3233 142.276 34.6593C145.512 33.3323 150.018 32.5 155.02 32.5C160.023 32.5 164.528 33.3323 167.765 34.6593C169.384 35.3233 170.661 36.1013 171.526 36.9397C172.389 37.7765 172.812 38.6416 172.812 39.5Z" stroke="url(#paint9_linear_239_7544)"/>
</g>
<ellipse cx="240.412" cy="114.5" rx="18.2916" ry="7.5" fill="#E2EFFF"/>
<path d="M222.121 34H258.704V114H222.121V34Z" fill="url(#paint10_linear_239_7544)"/>
<g filter="url(#filter5_d_239_7544)">
<ellipse cx="240.412" cy="34.5" rx="18.2916" ry="7.5" fill="#B2D7F5"/>
<path d="M258.204 34.5C258.204 35.3584 257.782 36.2235 256.918 37.0603C256.054 37.8987 254.776 38.6767 253.157 39.3407C249.92 40.6677 245.415 41.5 240.412 41.5C235.41 41.5 230.904 40.6677 227.668 39.3407C226.048 38.6767 224.771 37.8987 223.906 37.0603C223.043 36.2235 222.621 35.3584 222.621 34.5C222.621 33.6416 223.043 32.7765 223.906 31.9397C224.771 31.1013 226.048 30.3233 227.668 29.6593C230.904 28.3323 235.41 27.5 240.412 27.5C245.415 27.5 249.92 28.3323 253.157 29.6593C254.776 30.3233 256.054 31.1013 256.918 31.9397C257.782 32.7765 258.204 33.6416 258.204 34.5Z" stroke="url(#paint11_linear_239_7544)"/>
</g>
<ellipse cx="95.1178" cy="135.5" rx="18.2916" ry="7.5" fill="#E2EFFF"/>
<path d="M76.8262 89H113.409V135H76.8262V89Z" fill="url(#paint12_linear_239_7544)"/>
<g filter="url(#filter6_d_239_7544)">
<ellipse cx="95.1178" cy="89.5" rx="18.2916" ry="7.5" fill="#B2D7F5"/>
<path d="M112.909 89.5C112.909 90.3584 112.487 91.2235 111.624 92.0603C110.759 92.8987 109.482 93.6767 107.862 94.3407C104.626 95.6677 100.12 96.5 95.1177 96.5C90.1153 96.5 85.6097 95.6677 82.3733 94.3407C80.7539 93.6767 79.4764 92.8987 78.6116 92.0603C77.7484 91.2235 77.3262 90.3584 77.3262 89.5C77.3262 88.6416 77.7484 87.7765 78.6116 86.9397C79.4764 86.1013 80.7539 85.3233 82.3733 84.6593C85.6097 83.3323 90.1153 82.5 95.1177 82.5C100.12 82.5 104.626 83.3323 107.862 84.6593C109.482 85.3233 110.759 86.1013 111.624 86.9397C112.487 87.7765 112.909 88.6416 112.909 89.5Z" stroke="url(#paint13_linear_239_7544)"/>
</g>
<ellipse cx="63.2554" cy="184.75" rx="18.2916" ry="7.5" fill="#E2EFFF"/>
<path d="M44.9639 87.25H81.547V184.25H44.9639V87.25Z" fill="url(#paint14_linear_239_7544)"/>
<g filter="url(#filter7_d_239_7544)">
<ellipse cx="63.2554" cy="87.75" rx="18.2916" ry="7.5" fill="#B2D7F5"/>
<path d="M81.047 87.75C81.047 88.6084 80.6248 89.4735 79.7616 90.3103C78.8968 91.1487 77.6193 91.9267 75.9999 92.5907C72.7635 93.9177 68.2579 94.75 63.2554 94.75C58.253 94.75 53.7474 93.9177 50.511 92.5907C48.8916 91.9267 47.6141 91.1487 46.7493 90.3103C45.886 89.4735 45.4639 88.6084 45.4639 87.75C45.4639 86.8916 45.886 86.0265 46.7493 85.1897C47.6141 84.3513 48.8916 83.5733 50.511 82.9093C53.7474 81.5823 58.253 80.75 63.2554 80.75C68.2579 80.75 72.7635 81.5823 75.9999 82.9093C77.6193 83.5733 78.8968 84.3513 79.7616 85.1897C80.6248 86.0265 81.047 86.8916 81.047 87.75Z" stroke="url(#paint15_linear_239_7544)"/>
</g>
<ellipse cx="174.326" cy="98" rx="18.4659" ry="7.5" fill="#E2EFFF"/>
<path d="M155.86 38.5H192.792V97.5H155.86V38.5Z" fill="url(#paint16_linear_239_7544)"/>
<g filter="url(#filter8_d_239_7544)">
<ellipse cx="174.326" cy="39" rx="18.4659" ry="7.5" fill="#B2D7F5"/>
<path d="M192.292 39C192.292 39.8566 191.866 40.7213 190.994 41.5587C190.121 42.3974 188.83 43.1758 187.195 43.8401C183.927 45.1675 179.377 46 174.326 46C169.275 46 164.725 45.1675 161.457 43.8401C159.821 43.1758 158.531 42.3974 157.657 41.5587C156.785 40.7213 156.36 39.8566 156.36 39C156.36 38.1434 156.785 37.2787 157.657 36.4413C158.531 35.6026 159.821 34.8242 161.457 34.1599C164.725 32.8325 169.275 32 174.326 32C179.377 32 183.927 32.8325 187.195 34.1599C188.83 34.8242 190.121 35.6026 190.994 36.4413C191.866 37.2787 192.292 38.1434 192.292 39Z" stroke="url(#paint17_linear_239_7544)"/>
</g>
<ellipse cx="221.295" cy="117.5" rx="18.2916" ry="7.5" fill="#E2EFFF"/>
<path d="M203.003 83H239.586V117H203.003V83Z" fill="url(#paint18_linear_239_7544)"/>
<g filter="url(#filter9_d_239_7544)">
<ellipse cx="221.295" cy="83.5" rx="18.2916" ry="7.5" fill="#B2D7F5"/>
<path d="M239.086 83.5C239.086 84.3584 238.664 85.2235 237.801 86.0603C236.936 86.8987 235.658 87.6767 234.039 88.3407C230.803 89.6677 226.297 90.5 221.295 90.5C216.292 90.5 211.786 89.6677 208.55 88.3407C206.931 87.6767 205.653 86.8987 204.788 86.0603C203.925 85.2235 203.503 84.3584 203.503 83.5C203.503 82.6416 203.925 81.7765 204.788 80.9397C205.653 80.1013 206.931 79.3233 208.55 78.6593C211.786 77.3323 216.292 76.5 221.295 76.5C226.297 76.5 230.803 77.3323 234.039 78.6593C235.658 79.3233 236.936 80.1013 237.801 80.9397C238.664 81.7765 239.086 82.6416 239.086 83.5Z" stroke="url(#paint19_linear_239_7544)"/>
</g>
<ellipse cx="139.914" cy="114.25" rx="18.4659" ry="7.5" fill="#E2EFFF"/>
<path d="M121.448 54.75H158.38V113.75H121.448V54.75Z" fill="url(#paint20_linear_239_7544)"/>
<g filter="url(#filter10_d_239_7544)">
<ellipse cx="139.914" cy="55.25" rx="18.4659" ry="7.5" fill="#B2D7F5"/>
<path d="M157.88 55.25C157.88 56.1066 157.455 56.9713 156.583 57.8087C155.709 58.6474 154.419 59.4258 152.783 60.0901C149.515 61.4175 144.965 62.25 139.914 62.25C134.863 62.25 130.313 61.4175 127.045 60.0901C125.409 59.4258 124.119 58.6474 123.246 57.8087C122.374 56.9713 121.948 56.1066 121.948 55.25C121.948 54.3934 122.374 53.5287 123.246 52.6913C124.119 51.8526 125.409 51.0742 127.045 50.4099C130.313 49.0825 134.863 48.25 139.914 48.25C144.965 48.25 149.515 49.0825 152.783 50.4099C154.419 51.0742 155.709 51.8526 156.583 52.6913C157.455 53.5287 157.88 54.3934 157.88 55.25Z" stroke="url(#paint21_linear_239_7544)"/>
</g>
<ellipse cx="197.079" cy="175.75" rx="18.2916" ry="7.5" fill="#E2EFFF"/>
<path d="M178.787 62.25H215.37V175.25H178.787V62.25Z" fill="url(#paint22_linear_239_7544)"/>
<g filter="url(#filter11_d_239_7544)">
<ellipse cx="197.079" cy="62.75" rx="18.2916" ry="7.5" fill="#B2D7F5"/>
<path d="M214.87 62.75C214.87 63.6084 214.448 64.4735 213.585 65.3103C212.72 66.1487 211.443 66.9267 209.823 67.5907C206.587 68.9177 202.081 69.75 197.079 69.75C192.076 69.75 187.571 68.9177 184.334 67.5907C182.715 66.9267 181.437 66.1487 180.573 65.3103C179.709 64.4735 179.287 63.6084 179.287 62.75C179.287 61.8916 179.709 61.0265 180.573 60.1897C181.437 59.3513 182.715 58.5733 184.334 57.9093C187.571 56.5823 192.076 55.75 197.079 55.75C202.081 55.75 206.587 56.5823 209.823 57.9093C211.443 58.5733 212.72 59.3513 213.585 60.1897C214.448 61.0265 214.87 61.8916 214.87 62.75Z" stroke="url(#paint23_linear_239_7544)"/>
</g>
<ellipse cx="167.765" cy="195.75" rx="18.2916" ry="7.5" fill="#E2EFFF"/>
<path d="M149.474 82.25H186.057V195.25H149.474V82.25Z" fill="url(#paint24_linear_239_7544)"/>
<g filter="url(#filter12_d_239_7544)">
<ellipse cx="167.765" cy="82.75" rx="18.2916" ry="7.5" fill="#B2D7F5"/>
<path d="M185.557 82.75C185.557 83.6084 185.135 84.4735 184.271 85.3103C183.407 86.1487 182.129 86.9267 180.51 87.5907C177.273 88.9177 172.768 89.75 167.765 89.75C162.763 89.75 158.257 88.9177 155.021 87.5907C153.401 86.9267 152.124 86.1487 151.259 85.3103C150.396 84.4735 149.974 83.6084 149.974 82.75C149.974 81.8916 150.396 81.0265 151.259 80.1897C152.124 79.3513 153.401 78.5733 155.021 77.9093C158.257 76.5823 162.763 75.75 167.765 75.75C172.768 75.75 177.273 76.5823 180.51 77.9093C182.129 78.5733 183.407 79.3513 184.271 80.1897C185.135 81.0265 185.557 81.8916 185.557 82.75Z" stroke="url(#paint25_linear_239_7544)"/>
</g>
<ellipse cx="236.588" cy="175.5" rx="18.2916" ry="7.5" fill="#E2EFFF"/>
<path d="M218.297 140H254.88V175H218.297V140Z" fill="url(#paint26_linear_239_7544)"/>
<g filter="url(#filter13_d_239_7544)">
<ellipse cx="236.588" cy="140.5" rx="18.2916" ry="7.5" fill="#B2D7F5"/>
<path d="M254.38 140.5C254.38 141.358 253.958 142.223 253.095 143.06C252.23 143.899 250.952 144.677 249.333 145.341C246.096 146.668 241.591 147.5 236.588 147.5C231.586 147.5 227.08 146.668 223.844 145.341C222.225 144.677 220.947 143.899 220.082 143.06C219.219 142.223 218.797 141.358 218.797 140.5C218.797 139.642 219.219 138.777 220.082 137.94C220.947 137.101 222.225 136.323 223.844 135.659C227.08 134.332 231.586 133.5 236.588 133.5C241.591 133.5 246.096 134.332 249.333 135.659C250.952 136.323 252.23 137.101 253.095 137.94C253.958 138.777 254.38 139.642 254.38 140.5Z" stroke="url(#paint27_linear_239_7544)"/>
</g>
<ellipse cx="157.569" cy="175.25" rx="18.2916" ry="7.5" fill="#E2EFFF"/>
<path d="M139.277 99.75H175.86V174.75H139.277V99.75Z" fill="url(#paint28_linear_239_7544)"/>
<g filter="url(#filter14_d_239_7544)">
<ellipse cx="157.569" cy="100.25" rx="18.2916" ry="7.5" fill="#B2D7F5"/>
<path d="M175.36 100.25C175.36 101.108 174.938 101.973 174.075 102.81C173.21 103.649 171.933 104.427 170.313 105.091C167.077 106.418 162.571 107.25 157.569 107.25C152.566 107.25 148.061 106.418 144.825 105.091C143.205 104.427 141.928 103.649 141.063 102.81C140.2 101.973 139.777 101.108 139.777 100.25C139.777 99.3916 140.2 98.5265 141.063 97.6897C141.928 96.8513 143.205 96.0733 144.825 95.4093C148.061 94.0823 152.566 93.25 157.569 93.25C162.571 93.25 167.077 94.0823 170.313 95.4093C171.933 96.0733 173.21 96.8513 174.075 97.6897C174.938 98.5265 175.36 99.3916 175.36 100.25Z" stroke="url(#paint29_linear_239_7544)"/>
</g>
<ellipse cx="19.9219" cy="155.25" rx="18.2916" ry="7.5" fill="#E2EFFF"/>
<path d="M1.63037 79.75H38.2135V154.75H1.63037V79.75Z" fill="url(#paint30_linear_239_7544)"/>
<g filter="url(#filter15_d_239_7544)">
<ellipse cx="19.9219" cy="80.25" rx="18.2916" ry="7.5" fill="#B2D7F5"/>
<path d="M37.7135 80.25C37.7135 81.1084 37.2913 81.9735 36.4281 82.8103C35.5633 83.6487 34.2858 84.4267 32.6664 85.0907C29.43 86.4177 24.9244 87.25 19.9219 87.25C14.9195 87.25 10.4139 86.4177 7.17754 85.0907C5.55813 84.4267 4.28063 83.6487 3.41583 82.8103C2.55255 81.9735 2.13037 81.1084 2.13037 80.25C2.13037 79.3916 2.55255 78.5265 3.41583 77.6897C4.28063 76.8513 5.55813 76.0733 7.17754 75.4093C10.4139 74.0823 14.9195 73.25 19.9219 73.25C24.9244 73.25 29.43 74.0823 32.6664 75.4093C34.2858 76.0733 35.5633 76.8513 36.4281 77.6897C37.2913 78.5265 37.7135 79.3916 37.7135 80.25Z" stroke="url(#paint31_linear_239_7544)"/>
</g>
<ellipse cx="112.961" cy="169.5" rx="18.2916" ry="7.5" fill="#E2EFFF"/>
<path d="M94.6694 80H131.253V169H94.6694V80Z" fill="url(#paint32_linear_239_7544)"/>
<g filter="url(#filter16_d_239_7544)">
<ellipse cx="112.961" cy="80.5" rx="18.2916" ry="7.5" fill="#B2D7F5"/>
<path d="M130.753 80.5C130.753 81.3584 130.33 82.2235 129.467 83.0603C128.602 83.8987 127.325 84.6767 125.705 85.3407C122.469 86.6677 117.963 87.5 112.961 87.5C107.959 87.5 103.453 86.6677 100.217 85.3407C98.5972 84.6767 97.3197 83.8987 96.4549 83.0603C95.5916 82.2235 95.1694 81.3584 95.1694 80.5C95.1694 79.6416 95.5916 78.7765 96.4549 77.9397C97.3197 77.1013 98.5972 76.3233 100.217 75.6593C103.453 74.3323 107.959 73.5 112.961 73.5C117.963 73.5 122.469 74.3323 125.705 75.6593C127.325 76.3233 128.602 77.1013 129.467 77.9397C130.33 78.7765 130.753 79.6416 130.753 80.5Z" stroke="url(#paint33_linear_239_7544)"/>
</g>
<ellipse cx="47.961" cy="193" rx="18.2916" ry="7.5" fill="#E2EFFF"/>
<path d="M29.6694 117.5H66.2526V192.5H29.6694V117.5Z" fill="url(#paint34_linear_239_7544)"/>
<g filter="url(#filter17_d_239_7544)">
<ellipse cx="47.961" cy="118" rx="18.2916" ry="7.5" fill="#B2D7F5"/>
<path d="M65.7526 118C65.7526 118.858 65.3304 119.723 64.4671 120.56C63.6023 121.399 62.3248 122.177 60.7054 122.841C57.469 124.168 52.9634 125 47.961 125C42.9586 125 38.453 124.168 35.2166 122.841C33.5972 122.177 32.3197 121.399 31.4549 120.56C30.5916 119.723 30.1694 118.858 30.1694 118C30.1694 117.142 30.5916 116.277 31.4549 115.44C32.3197 114.601 33.5972 113.823 35.2166 113.159C38.453 111.832 42.9586 111 47.961 111C52.9634 111 57.469 111.832 60.7054 113.159C62.3248 113.823 63.6023 114.601 64.4671 115.44C65.3304 116.277 65.7526 117.142 65.7526 118Z" stroke="url(#paint35_linear_239_7544)"/>
</g>
<ellipse cx="133.353" cy="195.5" rx="18.2916" ry="7.5" fill="#E2EFFF"/>
<path d="M115.062 126H151.645V195H115.062V126Z" fill="url(#paint36_linear_239_7544)"/>
<g filter="url(#filter18_d_239_7544)">
<ellipse cx="133.353" cy="126.5" rx="18.2916" ry="7.5" fill="#B2D7F5"/>
<path d="M151.145 126.5C151.145 127.358 150.722 128.223 149.859 129.06C148.994 129.899 147.717 130.677 146.098 131.341C142.861 132.668 138.356 133.5 133.353 133.5C128.351 133.5 123.845 132.668 120.609 131.341C118.989 130.677 117.712 129.899 116.847 129.06C115.984 128.223 115.562 127.358 115.562 126.5C115.562 125.642 115.984 124.777 116.847 123.94C117.712 123.101 118.989 122.323 120.609 121.659C123.845 120.332 128.351 119.5 133.353 119.5C138.356 119.5 142.861 120.332 146.098 121.659C147.717 122.323 148.994 123.101 149.859 123.94C150.722 124.777 151.145 125.642 151.145 126.5Z" stroke="url(#paint37_linear_239_7544)"/>
</g>
<ellipse cx="191.981" cy="200.25" rx="18.2916" ry="7.5" fill="#E2EFFF"/>
<path d="M173.689 109.75H210.272V199.75H173.689V109.75Z" fill="url(#paint38_linear_239_7544)"/>
<g filter="url(#filter19_d_239_7544)">
<ellipse cx="191.981" cy="110.25" rx="18.2916" ry="7.5" fill="#B2D7F5"/>
<path d="M209.772 110.25C209.772 111.108 209.35 111.973 208.487 112.81C207.622 113.649 206.344 114.427 204.725 115.091C201.489 116.418 196.983 117.25 191.981 117.25C186.978 117.25 182.473 116.418 179.236 115.091C177.617 114.427 176.339 113.649 175.474 112.81C174.611 111.973 174.189 111.108 174.189 110.25C174.189 109.392 174.611 108.527 175.474 107.69C176.339 106.851 177.617 106.073 179.236 105.409C182.473 104.082 186.978 103.25 191.981 103.25C196.983 103.25 201.489 104.082 204.725 105.409C206.344 106.073 207.622 106.851 208.487 107.69C209.35 108.527 209.772 109.392 209.772 110.25Z" stroke="url(#paint39_linear_239_7544)"/>
</g>
<ellipse cx="92.5689" cy="196.5" rx="18.2916" ry="7.5" fill="#E2EFFF"/>
<path d="M74.2773 148H110.86V196H74.2773V148Z" fill="url(#paint40_linear_239_7544)"/>
<g filter="url(#filter20_d_239_7544)">
<ellipse cx="92.5689" cy="148.5" rx="18.2916" ry="7.5" fill="#B2D7F5"/>
<path d="M110.36 148.5C110.36 149.358 109.938 150.223 109.075 151.06C108.21 151.899 106.933 152.677 105.313 153.341C102.077 154.668 97.5714 155.5 92.5689 155.5C87.5665 155.5 83.0609 154.668 79.8245 153.341C78.2051 152.677 76.9276 151.899 76.0628 151.06C75.1995 150.223 74.7773 149.358 74.7773 148.5C74.7773 147.642 75.1995 146.777 76.0628 145.94C76.9276 145.101 78.2051 144.323 79.8245 143.659C83.0609 142.332 87.5665 141.5 92.5689 141.5C97.5714 141.5 102.077 142.332 105.313 143.659C106.933 144.323 108.21 145.101 109.075 145.94C109.938 146.777 110.36 147.642 110.36 148.5Z" stroke="url(#paint41_linear_239_7544)"/>
</g>
<defs>
<filter id="filter0_d_239_7544" x="58.9834" y="43" width="36.583" height="16" filterUnits="userSpaceOnUse" color-interpolation-filters="sRGB">
<feFlood flood-opacity="0" result="BackgroundImageFix"/>
<feColorMatrix in="SourceAlpha" type="matrix" values="0 0 0 0 0 0 0 0 0 0 0 0 0 0 0 0 0 0 127 0" result="hardAlpha"/>
<feOffset dy="1"/>
<feComposite in2="hardAlpha" operator="out"/>
<feColorMatrix type="matrix" values="0 0 0 0 1 0 0 0 0 1 0 0 0 0 1 0 0 0 0.25 0"/>
<feBlend mode="normal" in2="BackgroundImageFix" result="effect1_dropShadow_239_7544"/>
<feBlend mode="normal" in="SourceGraphic" in2="effect1_dropShadow_239_7544" result="shape"/>
</filter>
<filter id="filter1_d_239_7544" x="19.4736" y="27" width="36.583" height="16" filterUnits="userSpaceOnUse" color-interpolation-filters="sRGB">
<feFlood flood-opacity="0" result="BackgroundImageFix"/>
<feColorMatrix in="SourceAlpha" type="matrix" values="0 0 0 0 0 0 0 0 0 0 0 0 0 0 0 0 0 0 127 0" result="hardAlpha"/>
<feOffset dy="1"/>
<feComposite in2="hardAlpha" operator="out"/>
<feColorMatrix type="matrix" values="0 0 0 0 1 0 0 0 0 1 0 0 0 0 1 0 0 0 0.25 0"/>
<feBlend mode="normal" in2="BackgroundImageFix" result="effect1_dropShadow_239_7544"/>
<feBlend mode="normal" in="SourceGraphic" in2="effect1_dropShadow_239_7544" result="shape"/>
</filter>
<filter id="filter2_d_239_7544" x="98.4932" y="1" width="36.583" height="16" filterUnits="userSpaceOnUse" color-interpolation-filters="sRGB">
<feFlood flood-opacity="0" result="BackgroundImageFix"/>
<feColorMatrix in="SourceAlpha" type="matrix" values="0 0 0 0 0 0 0 0 0 0 0 0 0 0 0 0 0 0 127 0" result="hardAlpha"/>
<feOffset dy="1"/>
<feComposite in2="hardAlpha" operator="out"/>
<feColorMatrix type="matrix" values="0 0 0 0 1 0 0 0 0 1 0 0 0 0 1 0 0 0 0.25 0"/>
<feBlend mode="normal" in2="BackgroundImageFix" result="effect1_dropShadow_239_7544"/>
<feBlend mode="normal" in="SourceGraphic" in2="effect1_dropShadow_239_7544" result="shape"/>
</filter>
<filter id="filter3_d_239_7544" x="178.787" y="11.5" width="36.583" height="16" filterUnits="userSpaceOnUse" color-interpolation-filters="sRGB">
<feFlood flood-opacity="0" result="BackgroundImageFix"/>
<feColorMatrix in="SourceAlpha" type="matrix" values="0 0 0 0 0 0 0 0 0 0 0 0 0 0 0 0 0 0 127 0" result="hardAlpha"/>
<feOffset dy="1"/>
<feComposite in2="hardAlpha" operator="out"/>
<feColorMatrix type="matrix" values="0 0 0 0 1 0 0 0 0 1 0 0 0 0 1 0 0 0 0.25 0"/>
<feBlend mode="normal" in2="BackgroundImageFix" result="effect1_dropShadow_239_7544"/>
<feBlend mode="normal" in="SourceGraphic" in2="effect1_dropShadow_239_7544" result="shape"/>
</filter>
<filter id="filter4_d_239_7544" x="136.729" y="32" width="36.583" height="16" filterUnits="userSpaceOnUse" color-interpolation-filters="sRGB">
<feFlood flood-opacity="0" result="BackgroundImageFix"/>
<feColorMatrix in="SourceAlpha" type="matrix" values="0 0 0 0 0 0 0 0 0 0 0 0 0 0 0 0 0 0 127 0" result="hardAlpha"/>
<feOffset dy="1"/>
<feComposite in2="hardAlpha" operator="out"/>
<feColorMatrix type="matrix" values="0 0 0 0 1 0 0 0 0 1 0 0 0 0 1 0 0 0 0.25 0"/>
<feBlend mode="normal" in2="BackgroundImageFix" result="effect1_dropShadow_239_7544"/>
<feBlend mode="normal" in="SourceGraphic" in2="effect1_dropShadow_239_7544" result="shape"/>
</filter>
<filter id="filter5_d_239_7544" x="222.121" y="27" width="36.583" height="16" filterUnits="userSpaceOnUse" color-interpolation-filters="sRGB">
<feFlood flood-opacity="0" result="BackgroundImageFix"/>
<feColorMatrix in="SourceAlpha" type="matrix" values="0 0 0 0 0 0 0 0 0 0 0 0 0 0 0 0 0 0 127 0" result="hardAlpha"/>
<feOffset dy="1"/>
<feComposite in2="hardAlpha" operator="out"/>
<feColorMatrix type="matrix" values="0 0 0 0 1 0 0 0 0 1 0 0 0 0 1 0 0 0 0.25 0"/>
<feBlend mode="normal" in2="BackgroundImageFix" result="effect1_dropShadow_239_7544"/>
<feBlend mode="normal" in="SourceGraphic" in2="effect1_dropShadow_239_7544" result="shape"/>
</filter>
<filter id="filter6_d_239_7544" x="76.8262" y="82" width="36.583" height="16" filterUnits="userSpaceOnUse" color-interpolation-filters="sRGB">
<feFlood flood-opacity="0" result="BackgroundImageFix"/>
<feColorMatrix in="SourceAlpha" type="matrix" values="0 0 0 0 0 0 0 0 0 0 0 0 0 0 0 0 0 0 127 0" result="hardAlpha"/>
<feOffset dy="1"/>
<feComposite in2="hardAlpha" operator="out"/>
<feColorMatrix type="matrix" values="0 0 0 0 1 0 0 0 0 1 0 0 0 0 1 0 0 0 0.25 0"/>
<feBlend mode="normal" in2="BackgroundImageFix" result="effect1_dropShadow_239_7544"/>
<feBlend mode="normal" in="SourceGraphic" in2="effect1_dropShadow_239_7544" result="shape"/>
</filter>
<filter id="filter7_d_239_7544" x="44.9639" y="80.25" width="36.583" height="16" filterUnits="userSpaceOnUse" color-interpolation-filters="sRGB">
<feFlood flood-opacity="0" result="BackgroundImageFix"/>
<feColorMatrix in="SourceAlpha" type="matrix" values="0 0 0 0 0 0 0 0 0 0 0 0 0 0 0 0 0 0 127 0" result="hardAlpha"/>
<feOffset dy="1"/>
<feComposite in2="hardAlpha" operator="out"/>
<feColorMatrix type="matrix" values="0 0 0 0 1 0 0 0 0 1 0 0 0 0 1 0 0 0 0.25 0"/>
<feBlend mode="normal" in2="BackgroundImageFix" result="effect1_dropShadow_239_7544"/>
<feBlend mode="normal" in="SourceGraphic" in2="effect1_dropShadow_239_7544" result="shape"/>
</filter>
<filter id="filter8_d_239_7544" x="155.86" y="31.5" width="36.9316" height="16" filterUnits="userSpaceOnUse" color-interpolation-filters="sRGB">
<feFlood flood-opacity="0" result="BackgroundImageFix"/>
<feColorMatrix in="SourceAlpha" type="matrix" values="0 0 0 0 0 0 0 0 0 0 0 0 0 0 0 0 0 0 127 0" result="hardAlpha"/>
<feOffset dy="1"/>
<feComposite in2="hardAlpha" operator="out"/>
<feColorMatrix type="matrix" values="0 0 0 0 1 0 0 0 0 1 0 0 0 0 1 0 0 0 0.25 0"/>
<feBlend mode="normal" in2="BackgroundImageFix" result="effect1_dropShadow_239_7544"/>
<feBlend mode="normal" in="SourceGraphic" in2="effect1_dropShadow_239_7544" result="shape"/>
</filter>
<filter id="filter9_d_239_7544" x="203.003" y="76" width="36.583" height="16" filterUnits="userSpaceOnUse" color-interpolation-filters="sRGB">
<feFlood flood-opacity="0" result="BackgroundImageFix"/>
<feColorMatrix in="SourceAlpha" type="matrix" values="0 0 0 0 0 0 0 0 0 0 0 0 0 0 0 0 0 0 127 0" result="hardAlpha"/>
<feOffset dy="1"/>
<feComposite in2="hardAlpha" operator="out"/>
<feColorMatrix type="matrix" values="0 0 0 0 1 0 0 0 0 1 0 0 0 0 1 0 0 0 0.25 0"/>
<feBlend mode="normal" in2="BackgroundImageFix" result="effect1_dropShadow_239_7544"/>
<feBlend mode="normal" in="SourceGraphic" in2="effect1_dropShadow_239_7544" result="shape"/>
</filter>
<filter id="filter10_d_239_7544" x="121.448" y="47.75" width="36.9316" height="16" filterUnits="userSpaceOnUse" color-interpolation-filters="sRGB">
<feFlood flood-opacity="0" result="BackgroundImageFix"/>
<feColorMatrix in="SourceAlpha" type="matrix" values="0 0 0 0 0 0 0 0 0 0 0 0 0 0 0 0 0 0 127 0" result="hardAlpha"/>
<feOffset dy="1"/>
<feComposite in2="hardAlpha" operator="out"/>
<feColorMatrix type="matrix" values="0 0 0 0 1 0 0 0 0 1 0 0 0 0 1 0 0 0 0.25 0"/>
<feBlend mode="normal" in2="BackgroundImageFix" result="effect1_dropShadow_239_7544"/>
<feBlend mode="normal" in="SourceGraphic" in2="effect1_dropShadow_239_7544" result="shape"/>
</filter>
<filter id="filter11_d_239_7544" x="178.787" y="55.25" width="36.583" height="16" filterUnits="userSpaceOnUse" color-interpolation-filters="sRGB">
<feFlood flood-opacity="0" result="BackgroundImageFix"/>
<feColorMatrix in="SourceAlpha" type="matrix" values="0 0 0 0 0 0 0 0 0 0 0 0 0 0 0 0 0 0 127 0" result="hardAlpha"/>
<feOffset dy="1"/>
<feComposite in2="hardAlpha" operator="out"/>
<feColorMatrix type="matrix" values="0 0 0 0 1 0 0 0 0 1 0 0 0 0 1 0 0 0 0.25 0"/>
<feBlend mode="normal" in2="BackgroundImageFix" result="effect1_dropShadow_239_7544"/>
<feBlend mode="normal" in="SourceGraphic" in2="effect1_dropShadow_239_7544" result="shape"/>
</filter>
<filter id="filter12_d_239_7544" x="149.474" y="75.25" width="36.583" height="16" filterUnits="userSpaceOnUse" color-interpolation-filters="sRGB">
<feFlood flood-opacity="0" result="BackgroundImageFix"/>
<feColorMatrix in="SourceAlpha" type="matrix" values="0 0 0 0 0 0 0 0 0 0 0 0 0 0 0 0 0 0 127 0" result="hardAlpha"/>
<feOffset dy="1"/>
<feComposite in2="hardAlpha" operator="out"/>
<feColorMatrix type="matrix" values="0 0 0 0 1 0 0 0 0 1 0 0 0 0 1 0 0 0 0.25 0"/>
<feBlend mode="normal" in2="BackgroundImageFix" result="effect1_dropShadow_239_7544"/>
<feBlend mode="normal" in="SourceGraphic" in2="effect1_dropShadow_239_7544" result="shape"/>
</filter>
<filter id="filter13_d_239_7544" x="218.297" y="133" width="36.583" height="16" filterUnits="userSpaceOnUse" color-interpolation-filters="sRGB">
<feFlood flood-opacity="0" result="BackgroundImageFix"/>
<feColorMatrix in="SourceAlpha" type="matrix" values="0 0 0 0 0 0 0 0 0 0 0 0 0 0 0 0 0 0 127 0" result="hardAlpha"/>
<feOffset dy="1"/>
<feComposite in2="hardAlpha" operator="out"/>
<feColorMatrix type="matrix" values="0 0 0 0 1 0 0 0 0 1 0 0 0 0 1 0 0 0 0.25 0"/>
<feBlend mode="normal" in2="BackgroundImageFix" result="effect1_dropShadow_239_7544"/>
<feBlend mode="normal" in="SourceGraphic" in2="effect1_dropShadow_239_7544" result="shape"/>
</filter>
<filter id="filter14_d_239_7544" x="139.277" y="92.75" width="36.583" height="16" filterUnits="userSpaceOnUse" color-interpolation-filters="sRGB">
<feFlood flood-opacity="0" result="BackgroundImageFix"/>
<feColorMatrix in="SourceAlpha" type="matrix" values="0 0 0 0 0 0 0 0 0 0 0 0 0 0 0 0 0 0 127 0" result="hardAlpha"/>
<feOffset dy="1"/>
<feComposite in2="hardAlpha" operator="out"/>
<feColorMatrix type="matrix" values="0 0 0 0 1 0 0 0 0 1 0 0 0 0 1 0 0 0 0.25 0"/>
<feBlend mode="normal" in2="BackgroundImageFix" result="effect1_dropShadow_239_7544"/>
<feBlend mode="normal" in="SourceGraphic" in2="effect1_dropShadow_239_7544" result="shape"/>
</filter>
<filter id="filter15_d_239_7544" x="1.63037" y="72.75" width="36.583" height="16" filterUnits="userSpaceOnUse" color-interpolation-filters="sRGB">
<feFlood flood-opacity="0" result="BackgroundImageFix"/>
<feColorMatrix in="SourceAlpha" type="matrix" values="0 0 0 0 0 0 0 0 0 0 0 0 0 0 0 0 0 0 127 0" result="hardAlpha"/>
<feOffset dy="1"/>
<feComposite in2="hardAlpha" operator="out"/>
<feColorMatrix type="matrix" values="0 0 0 0 1 0 0 0 0 1 0 0 0 0 1 0 0 0 0.25 0"/>
<feBlend mode="normal" in2="BackgroundImageFix" result="effect1_dropShadow_239_7544"/>
<feBlend mode="normal" in="SourceGraphic" in2="effect1_dropShadow_239_7544" result="shape"/>
</filter>
<filter id="filter16_d_239_7544" x="94.6694" y="73" width="36.583" height="16" filterUnits="userSpaceOnUse" color-interpolation-filters="sRGB">
<feFlood flood-opacity="0" result="BackgroundImageFix"/>
<feColorMatrix in="SourceAlpha" type="matrix" values="0 0 0 0 0 0 0 0 0 0 0 0 0 0 0 0 0 0 127 0" result="hardAlpha"/>
<feOffset dy="1"/>
<feComposite in2="hardAlpha" operator="out"/>
<feColorMatrix type="matrix" values="0 0 0 0 1 0 0 0 0 1 0 0 0 0 1 0 0 0 0.25 0"/>
<feBlend mode="normal" in2="BackgroundImageFix" result="effect1_dropShadow_239_7544"/>
<feBlend mode="normal" in="SourceGraphic" in2="effect1_dropShadow_239_7544" result="shape"/>
</filter>
<filter id="filter17_d_239_7544" x="29.6694" y="110.5" width="36.583" height="16" filterUnits="userSpaceOnUse" color-interpolation-filters="sRGB">
<feFlood flood-opacity="0" result="BackgroundImageFix"/>
<feColorMatrix in="SourceAlpha" type="matrix" values="0 0 0 0 0 0 0 0 0 0 0 0 0 0 0 0 0 0 127 0" result="hardAlpha"/>
<feOffset dy="1"/>
<feComposite in2="hardAlpha" operator="out"/>
<feColorMatrix type="matrix" values="0 0 0 0 1 0 0 0 0 1 0 0 0 0 1 0 0 0 0.25 0"/>
<feBlend mode="normal" in2="BackgroundImageFix" result="effect1_dropShadow_239_7544"/>
<feBlend mode="normal" in="SourceGraphic" in2="effect1_dropShadow_239_7544" result="shape"/>
</filter>
<filter id="filter18_d_239_7544" x="115.062" y="119" width="36.583" height="16" filterUnits="userSpaceOnUse" color-interpolation-filters="sRGB">
<feFlood flood-opacity="0" result="BackgroundImageFix"/>
<feColorMatrix in="SourceAlpha" type="matrix" values="0 0 0 0 0 0 0 0 0 0 0 0 0 0 0 0 0 0 127 0" result="hardAlpha"/>
<feOffset dy="1"/>
<feComposite in2="hardAlpha" operator="out"/>
<feColorMatrix type="matrix" values="0 0 0 0 1 0 0 0 0 1 0 0 0 0 1 0 0 0 0.25 0"/>
<feBlend mode="normal" in2="BackgroundImageFix" result="effect1_dropShadow_239_7544"/>
<feBlend mode="normal" in="SourceGraphic" in2="effect1_dropShadow_239_7544" result="shape"/>
</filter>
<filter id="filter19_d_239_7544" x="173.689" y="102.75" width="36.583" height="16" filterUnits="userSpaceOnUse" color-interpolation-filters="sRGB">
<feFlood flood-opacity="0" result="BackgroundImageFix"/>
<feColorMatrix in="SourceAlpha" type="matrix" values="0 0 0 0 0 0 0 0 0 0 0 0 0 0 0 0 0 0 127 0" result="hardAlpha"/>
<feOffset dy="1"/>
<feComposite in2="hardAlpha" operator="out"/>
<feColorMatrix type="matrix" values="0 0 0 0 1 0 0 0 0 1 0 0 0 0 1 0 0 0 0.25 0"/>
<feBlend mode="normal" in2="BackgroundImageFix" result="effect1_dropShadow_239_7544"/>
<feBlend mode="normal" in="SourceGraphic" in2="effect1_dropShadow_239_7544" result="shape"/>
</filter>
<filter id="filter20_d_239_7544" x="74.2773" y="141" width="36.583" height="16" filterUnits="userSpaceOnUse" color-interpolation-filters="sRGB">
<feFlood flood-opacity="0" result="BackgroundImageFix"/>
<feColorMatrix in="SourceAlpha" type="matrix" values="0 0 0 0 0 0 0 0 0 0 0 0 0 0 0 0 0 0 127 0" result="hardAlpha"/>
<feOffset dy="1"/>
<feComposite in2="hardAlpha" operator="out"/>
<feColorMatrix type="matrix" values="0 0 0 0 1 0 0 0 0 1 0 0 0 0 1 0 0 0 0.25 0"/>
<feBlend mode="normal" in2="BackgroundImageFix" result="effect1_dropShadow_239_7544"/>
<feBlend mode="normal" in="SourceGraphic" in2="effect1_dropShadow_239_7544" result="shape"/>
</filter>
<linearGradient id="paint0_linear_239_7544" x1="74.7789" y1="55.1922" x2="74.7789" y2="84.4474" gradientUnits="userSpaceOnUse">
<stop stop-color="#5999E3"/>
<stop offset="0.57999" stop-color="#B6E0FF"/>
<stop offset="1" stop-color="#E2EFFF"/>
</linearGradient>
<linearGradient id="paint1_linear_239_7544" x1="77.275" y1="43" x2="77.275" y2="58" gradientUnits="userSpaceOnUse">
<stop stop-color="white"/>
<stop offset="1" stop-color="white" stop-opacity="0"/>
</linearGradient>
<linearGradient id="paint2_linear_239_7544" x1="35.2691" y1="42.8648" x2="35.2691" y2="92.8127" gradientUnits="userSpaceOnUse">
<stop stop-color="#5999E3"/>
<stop offset="0.57999" stop-color="#B6E0FF"/>
<stop offset="1" stop-color="#E2EFFF"/>
</linearGradient>
<linearGradient id="paint3_linear_239_7544" x1="37.7652" y1="27" x2="37.7652" y2="42" gradientUnits="userSpaceOnUse">
<stop stop-color="white"/>
<stop offset="1" stop-color="white" stop-opacity="0"/>
</linearGradient>
<linearGradient id="paint4_linear_239_7544" x1="114.289" y1="19.6509" x2="114.289" y2="85.2966" gradientUnits="userSpaceOnUse">
<stop stop-color="#5999E3"/>
<stop offset="0.57999" stop-color="#B6E0FF"/>
<stop offset="1" stop-color="#E2EFFF"/>
</linearGradient>
<linearGradient id="paint5_linear_239_7544" x1="116.785" y1="1" x2="116.785" y2="16" gradientUnits="userSpaceOnUse">
<stop stop-color="white"/>
<stop offset="1" stop-color="white" stop-opacity="0"/>
</linearGradient>
<linearGradient id="paint6_linear_239_7544" x1="194.583" y1="27.8714" x2="194.583" y2="80.6734" gradientUnits="userSpaceOnUse">
<stop stop-color="#5999E3"/>
<stop offset="0.57999" stop-color="#B6E0FF"/>
<stop offset="1" stop-color="#E2EFFF"/>
</linearGradient>
<linearGradient id="paint7_linear_239_7544" x1="197.079" y1="11.5" x2="197.079" y2="26.5" gradientUnits="userSpaceOnUse">
<stop stop-color="white"/>
<stop offset="1" stop-color="white" stop-opacity="0"/>
</linearGradient>
<linearGradient id="paint8_linear_239_7544" x1="152.524" y1="45.2054" x2="152.524" y2="80.1689" gradientUnits="userSpaceOnUse">
<stop stop-color="#5999E3"/>
<stop offset="0.57999" stop-color="#B6E0FF"/>
<stop offset="1" stop-color="#E2EFFF"/>
</linearGradient>
<linearGradient id="paint9_linear_239_7544" x1="155.02" y1="32" x2="155.02" y2="47" gradientUnits="userSpaceOnUse">
<stop stop-color="white"/>
<stop offset="1" stop-color="white" stop-opacity="0"/>
</linearGradient>
<linearGradient id="paint10_linear_239_7544" x1="237.916" y1="44.1312" x2="237.916" y2="101.214" gradientUnits="userSpaceOnUse">
<stop stop-color="#5999E3"/>
<stop offset="0.57999" stop-color="#B6E0FF"/>
<stop offset="1" stop-color="#E2EFFF"/>
</linearGradient>
<linearGradient id="paint11_linear_239_7544" x1="240.412" y1="27" x2="240.412" y2="42" gradientUnits="userSpaceOnUse">
<stop stop-color="white"/>
<stop offset="1" stop-color="white" stop-opacity="0"/>
</linearGradient>
<linearGradient id="paint12_linear_239_7544" x1="92.6217" y1="94.8254" x2="92.6217" y2="127.648" gradientUnits="userSpaceOnUse">
<stop stop-color="#5999E3"/>
<stop offset="0.57999" stop-color="#B6E0FF"/>
<stop offset="1" stop-color="#E2EFFF"/>
</linearGradient>
<linearGradient id="paint13_linear_239_7544" x1="95.1177" y1="82" x2="95.1177" y2="97" gradientUnits="userSpaceOnUse">
<stop stop-color="white"/>
<stop offset="1" stop-color="white" stop-opacity="0"/>
</linearGradient>
<linearGradient id="paint14_linear_239_7544" x1="60.7593" y1="99.5341" x2="60.7593" y2="168.748" gradientUnits="userSpaceOnUse">
<stop stop-color="#5999E3"/>
<stop offset="0.57999" stop-color="#B6E0FF"/>
<stop offset="1" stop-color="#E2EFFF"/>
</linearGradient>
<linearGradient id="paint15_linear_239_7544" x1="63.2554" y1="80.25" x2="63.2554" y2="95.25" gradientUnits="userSpaceOnUse">
<stop stop-color="white"/>
<stop offset="1" stop-color="white" stop-opacity="0"/>
</linearGradient>
<linearGradient id="paint16_linear_239_7544" x1="171.806" y1="45.9718" x2="171.806" y2="88.0707" gradientUnits="userSpaceOnUse">
<stop stop-color="#5999E3"/>
<stop offset="0.57999" stop-color="#B6E0FF"/>
<stop offset="1" stop-color="#E2EFFF"/>
</linearGradient>
<linearGradient id="paint17_linear_239_7544" x1="174.326" y1="31.5" x2="174.326" y2="46.5" gradientUnits="userSpaceOnUse">
<stop stop-color="white"/>
<stop offset="1" stop-color="white" stop-opacity="0"/>
</linearGradient>
<linearGradient id="paint18_linear_239_7544" x1="218.798" y1="87.3058" x2="218.798" y2="111.566" gradientUnits="userSpaceOnUse">
<stop stop-color="#5999E3"/>
<stop offset="0.57999" stop-color="#B6E0FF"/>
<stop offset="1" stop-color="#E2EFFF"/>
</linearGradient>
<linearGradient id="paint19_linear_239_7544" x1="221.295" y1="76" x2="221.295" y2="91" gradientUnits="userSpaceOnUse">
<stop stop-color="white"/>
<stop offset="1" stop-color="white" stop-opacity="0"/>
</linearGradient>
<linearGradient id="paint20_linear_239_7544" x1="137.394" y1="62.2218" x2="137.394" y2="104.321" gradientUnits="userSpaceOnUse">
<stop stop-color="#5999E3"/>
<stop offset="0.57999" stop-color="#B6E0FF"/>
<stop offset="1" stop-color="#E2EFFF"/>
</linearGradient>
<linearGradient id="paint21_linear_239_7544" x1="139.914" y1="47.75" x2="139.914" y2="62.75" gradientUnits="userSpaceOnUse">
<stop stop-color="white"/>
<stop offset="1" stop-color="white" stop-opacity="0"/>
</linearGradient>
<linearGradient id="paint22_linear_239_7544" x1="194.583" y1="76.5603" x2="194.583" y2="157.19" gradientUnits="userSpaceOnUse">
<stop stop-color="#5999E3"/>
<stop offset="0.57999" stop-color="#B6E0FF"/>
<stop offset="1" stop-color="#E2EFFF"/>
</linearGradient>
<linearGradient id="paint23_linear_239_7544" x1="197.079" y1="55.25" x2="197.079" y2="70.25" gradientUnits="userSpaceOnUse">
<stop stop-color="white"/>
<stop offset="1" stop-color="white" stop-opacity="0"/>
</linearGradient>
<linearGradient id="paint24_linear_239_7544" x1="165.269" y1="96.5603" x2="165.269" y2="177.19" gradientUnits="userSpaceOnUse">
<stop stop-color="#5999E3"/>
<stop offset="0.57999" stop-color="#B6E0FF"/>
<stop offset="1" stop-color="#E2EFFF"/>
</linearGradient>
<linearGradient id="paint25_linear_239_7544" x1="167.765" y1="75.25" x2="167.765" y2="90.25" gradientUnits="userSpaceOnUse">
<stop stop-color="white"/>
<stop offset="1" stop-color="white" stop-opacity="0"/>
</linearGradient>
<linearGradient id="paint26_linear_239_7544" x1="234.092" y1="144.432" x2="234.092" y2="169.406" gradientUnits="userSpaceOnUse">
<stop stop-color="#5999E3"/>
<stop offset="0.57999" stop-color="#B6E0FF"/>
<stop offset="1" stop-color="#E2EFFF"/>
</linearGradient>
<linearGradient id="paint27_linear_239_7544" x1="236.588" y1="133" x2="236.588" y2="148" gradientUnits="userSpaceOnUse">
<stop stop-color="white"/>
<stop offset="1" stop-color="white" stop-opacity="0"/>
</linearGradient>
<linearGradient id="paint28_linear_239_7544" x1="155.073" y1="109.248" x2="155.073" y2="162.764" gradientUnits="userSpaceOnUse">
<stop stop-color="#5999E3"/>
<stop offset="0.57999" stop-color="#B6E0FF"/>
<stop offset="1" stop-color="#E2EFFF"/>
</linearGradient>
<linearGradient id="paint29_linear_239_7544" x1="157.569" y1="92.75" x2="157.569" y2="107.75" gradientUnits="userSpaceOnUse">
<stop stop-color="white"/>
<stop offset="1" stop-color="white" stop-opacity="0"/>
</linearGradient>
<linearGradient id="paint30_linear_239_7544" x1="17.4259" y1="89.248" x2="17.4259" y2="142.764" gradientUnits="userSpaceOnUse">
<stop stop-color="#5999E3"/>
<stop offset="0.57999" stop-color="#B6E0FF"/>
<stop offset="1" stop-color="#E2EFFF"/>
</linearGradient>
<linearGradient id="paint31_linear_239_7544" x1="19.9219" y1="72.75" x2="19.9219" y2="87.75" gradientUnits="userSpaceOnUse">
<stop stop-color="white"/>
<stop offset="1" stop-color="white" stop-opacity="0"/>
</linearGradient>
<linearGradient id="paint32_linear_239_7544" x1="110.465" y1="91.2709" x2="110.465" y2="154.776" gradientUnits="userSpaceOnUse">
<stop stop-color="#5999E3"/>
<stop offset="0.57999" stop-color="#B6E0FF"/>
<stop offset="1" stop-color="#E2EFFF"/>
</linearGradient>
<linearGradient id="paint33_linear_239_7544" x1="112.961" y1="73" x2="112.961" y2="88" gradientUnits="userSpaceOnUse">
<stop stop-color="white"/>
<stop offset="1" stop-color="white" stop-opacity="0"/>
</linearGradient>
<linearGradient id="paint34_linear_239_7544" x1="45.4649" y1="126.998" x2="45.4649" y2="180.514" gradientUnits="userSpaceOnUse">
<stop stop-color="#5999E3"/>
<stop offset="0.57999" stop-color="#B6E0FF"/>
<stop offset="1" stop-color="#E2EFFF"/>
</linearGradient>
<linearGradient id="paint35_linear_239_7544" x1="47.961" y1="110.5" x2="47.961" y2="125.5" gradientUnits="userSpaceOnUse">
<stop stop-color="white"/>
<stop offset="1" stop-color="white" stop-opacity="0"/>
</linearGradient>
<linearGradient id="paint36_linear_239_7544" x1="130.857" y1="134.738" x2="130.857" y2="183.972" gradientUnits="userSpaceOnUse">
<stop stop-color="#5999E3"/>
<stop offset="0.57999" stop-color="#B6E0FF"/>
<stop offset="1" stop-color="#E2EFFF"/>
</linearGradient>
<linearGradient id="paint37_linear_239_7544" x1="133.353" y1="119" x2="133.353" y2="134" gradientUnits="userSpaceOnUse">
<stop stop-color="white"/>
<stop offset="1" stop-color="white" stop-opacity="0"/>
</linearGradient>
<linearGradient id="paint38_linear_239_7544" x1="189.484" y1="121.148" x2="189.484" y2="185.366" gradientUnits="userSpaceOnUse">
<stop stop-color="#5999E3"/>
<stop offset="0.57999" stop-color="#B6E0FF"/>
<stop offset="1" stop-color="#E2EFFF"/>
</linearGradient>
<linearGradient id="paint39_linear_239_7544" x1="191.981" y1="102.75" x2="191.981" y2="117.75" gradientUnits="userSpaceOnUse">
<stop stop-color="white"/>
<stop offset="1" stop-color="white" stop-opacity="0"/>
</linearGradient>
<linearGradient id="paint40_linear_239_7544" x1="90.0728" y1="154.079" x2="90.0728" y2="188.329" gradientUnits="userSpaceOnUse">
<stop stop-color="#5999E3"/>
<stop offset="0.57999" stop-color="#B6E0FF"/>
<stop offset="1" stop-color="#E2EFFF"/>
</linearGradient>
<linearGradient id="paint41_linear_239_7544" x1="92.5689" y1="141" x2="92.5689" y2="156" gradientUnits="userSpaceOnUse">
<stop stop-color="white"/>
<stop offset="1" stop-color="white" stop-opacity="0"/>
</linearGradient>
</defs>
</svg>
