<svg width="48" height="48" viewBox="0 0 48 48" fill="none" xmlns="http://www.w3.org/2000/svg">
<path fill-rule="evenodd" clip-rule="evenodd" d="M24 48C37.2548 48 48 37.2548 48 24C48 10.7452 37.2548 0 24 0C10.7452 0 0 10.7452 0 24C0 37.2548 10.7452 48 24 48Z" fill="#E5E5EA"/>
<path d="M17.5879 19.7114H12.7699C12.5561 19.7114 12.3828 19.8851 12.3828 20.0994V35.6117C12.3828 35.826 12.5561 35.9997 12.7699 35.9997H17.5879C17.8018 35.9997 17.975 35.826 17.975 35.6117V20.0994C17.975 19.8851 17.8018 19.7114 17.5879 19.7114Z" fill="#797C80"/>
<path d="M15.1793 12C13.4262 12 12 13.4278 12 15.1828C12 16.9386 13.4262 18.3669 15.1793 18.3669C16.931 18.3669 18.356 16.9385 18.356 15.1828C18.3561 13.4278 16.931 12 15.1793 12Z" fill="#797C80"/>
<path d="M29.8402 19.3262C27.9051 19.3262 26.4747 20.1599 25.607 21.1072V20.0997C25.607 19.8854 25.4338 19.7117 25.2199 19.7117H20.6058C20.392 19.7117 20.2188 19.8854 20.2188 20.0997V35.612C20.2188 35.8263 20.392 36 20.6058 36H25.4133C25.6272 36 25.8004 35.8263 25.8004 35.612V27.937C25.8004 25.3507 26.5014 24.3431 28.3003 24.3431C30.2594 24.3431 30.4151 25.9584 30.4151 28.0701V35.6121C30.4151 35.8264 30.5884 36 30.8022 36H35.6115C35.8253 36 35.9986 35.8264 35.9986 35.6121V27.1033C35.9986 23.2576 35.2669 19.3262 29.8402 19.3262Z" fill="#797C80"/>
</svg>
