<svg width="71" height="42" viewBox="0 0 71 42" fill="none" xmlns="http://www.w3.org/2000/svg">
<path d="M49.2397 25.8354L35.4265 36.7926C39.3834 40.4814 43.8982 41.8931 49.382 41.9328C55.8666 41.9782 60.0104 39.9706 64.0234 36.3372L49.2397 25.8354V25.8354ZM49.2397 25.8354L35.4265 36.7926C39.3834 40.4814 43.8982 41.8931 49.382 41.9328C55.8666 41.9782 60.0104 39.9706 64.0234 36.3372L49.2397 25.8354V25.8354ZM49.2397 16.1395L35.4265 5.17947C39.3834 1.49066 43.8982 0.0818206 49.382 0.0406762C55.8666 -0.00614331 60.0104 2.00142 64.0234 5.6349L49.2397 16.1395V16.1395ZM42.896 20.5632L30.3122 11.4831C28.7378 14.3462 28.1051 17.3284 28.0548 20.5632C28.0345 23.9952 28.8065 27.3867 30.3122 30.4805L42.896 20.5632ZM56.1614 20.5632L68.7423 11.4831C70.3124 14.3462 70.9479 17.3284 70.9997 20.5632C71.0175 23.9949 70.2457 27.3859 68.7423 30.4805L56.1614 20.5632ZM27.7428 32.4455C18.9606 37.2835 7.96698 31.0437 7.96698 20.9889C7.96698 10.7623 19.3114 4.54102 28.0979 9.73799C29.3859 7.41178 31.0481 5.30732 33.0196 3.50674C18.9936 -5.66847 0 4.20761 0 20.9988C0 37.4991 18.4286 47.4305 32.4718 38.847C30.5536 36.9804 28.9559 34.8183 27.7414 32.4455H27.7428Z" fill="url(#paint0_linear_31_4)"/>
<defs>
<linearGradient id="paint0_linear_31_4" x1="0" y1="21.0002" x2="71.0011" y2="21.0002" gradientUnits="userSpaceOnUse">
<stop stop-color="#A873EC"/>
<stop offset="1" stop-color="#5774FB"/>
</linearGradient>
</defs>
</svg>
